<svg version="1.1" id="Layer_1" xmlns="http://www.w3.org/2000/svg" x="0" y="0" viewBox="0 0 500 540" style="enable-background:new 0 0 500 540" xml:space="preserve"><style>.st0{opacity:.5;fill:#bebebe}.st0,.st1,.st2{enable-background:new}.st1{opacity:.5;fill:#939393}.st2{fill:#6e6e6e}.st2,.st3{opacity:.5}.st4{fill:#4a4a4a}.st7{fill:#b9aea9}.st8{fill:#855a3d}.st9{fill:#997668}.st10{fill:#8c6c5f}.st12{fill:#aa8a6b}.st13{fill:#cea57c}.st14{fill:#b58f6f}.st15{fill:#875a52}.st16{fill:#825336}.st17{fill:#956f51}.st20{fill:#764d46}.st27{opacity:.5;fill:#ebcbab;enable-background:new}.st28{fill:#87623f}.st29{fill:none;stroke:#3e262d;stroke-width:1.0253;stroke-miterlimit:10}.st31{fill:#fff}.st32{fill:#4d4d4d}.st37{fill:#1a1a1a}.st38{fill:#7c8084}.st53{fill:#d3571b}.st54{fill:#0e285c}.st55{fill:#fe592e}.st56{fill:none;stroke:#fe592e;stroke-width:1.5485;stroke-miterlimit:10}</style><path class="st0" d="m34.1 326.8 293.4 44 34-32.7-230.6-44.6z"/><path class="st1" d="m327.1 367.8 32.5-31.2-220.5-42.8-92.6 31.9z"/><path class="st2" d="m326.6 365 31.1-29.9-210.9-40.9-88.6 30.5z"/><g class="st3"><path class="st4" d="m69.3 323.7 256.8 38.6 29.7-28.6-201.7-39.1z"/></g><g style="opacity:.7"><path style="fill:#a37f59" d="M76.7 124h87.2v80.3H76.7z"/><path class="st7" d="M135.2 130.7h23.6v11h-23.6z"/><path class="st8" d="M142.5 140.4c-.3 0-.4-.2-.4-.4v-.2c0-.3.2-.4.4-.4h14.4c.3 0 .4.2.4.4v.2c0 .3-.2.4-.4.4h-14.4zm14.8-2.8c0-.3-.2-.4-.4-.4h-12.7c-.3 0-.4.2-.4.4v.2c0 .3.2.4.4.4h12.7c.3 0 .4-.2.4-.4v-.2zm0-2.1c0-.3-.2-.4-.4-.4h-10.3c-.3 0-.4.2-.4.4v.2c0 .3.2.4.4.4h10.3c.3 0 .4-.2.4-.4v-.2zm0-2.2c0-.3-.2-.4-.4-.4h-13.7c-.3 0-.4.2-.4.4v.2c0 .3.2.4.4.4h13.7c.3 0 .4-.2.4-.4v-.2z"/><path class="st9" d="M113.8 124h12.9v80.3h-12.9z"/><path class="st10" d="M76.7 157.5h87.2v13.3H76.7z"/><path style="fill:#bca080" d="m76.7 124 16.2-2h59.5l11.5 2z"/><path class="st12" d="M14.8 225.3v-68.8l8.2 1.9v66.9z"/><path class="st13" d="M105.1 156.5H14.8l8.2 1.9h92.6z"/><path class="st14" d="M23 158.4h92.6v66.9H23z"/><path class="st15" d="m22.9 189-8.1-3.5v9.2l8.1 4.3z"/><path class="st10" d="M22.9 189h92.7v10.1H22.9z"/><path class="st15" d="m22.9 216.2-8.1-3v9.1l8.1 4z"/><path class="st10" d="M22.9 216.2h92.7v10.3H22.9z"/><path class="st9" d="M66.1 158.5h10.5v67.8H66.1z"/><path class="st8" d="M102.8 162.7h11v1.8h-11zM102.8 165.6h11v1.8h-11zM102.8 168.5h11v1.8h-11zM102.8 171.4h11v1.8h-11z"/><path class="st12" d="M11.3 225.7v58.8l-6.2-10.2V273l.3-18.5.1-10.3.3-21.3z"/><path class="st13" d="M5.8 222.9h89.6l9.7 3.2-93.8-.4z"/><path class="st14" d="M105.1 226.1v58.6H11.3v-59z"/><path class="st10" d="M11.2 248.6h93.9v10.8H11.2z"/><path class="st15" d="M11.3 248.6v10.9l-5.9-5 .1-10.3z"/><path class="st9" d="M55.1 225.9h10.5v58.8H55.1z"/><path class="st16" d="M28.5 229.5h-11c-.3 0-.6-.3-.6-.6v-.3c0-.3.3-.6.6-.6h11c.3 0 .6.3.6.6v.3c0 .3-.3.6-.6.6zM28.5 232.2h-11c-.3 0-.6-.3-.6-.6v-.3c0-.3.3-.6.6-.6h11c.3 0 .6.3.6.6v.3c0 .3-.3.6-.6.6zM28.5 234.9h-11c-.3 0-.6-.3-.6-.6v-.3c0-.3.3-.6.6-.6h11c.3 0 .6.3.6.6v.3c0 .3-.3.6-.6.6zM28.5 237.6h-11c-.3 0-.6-.3-.6-.6v-.3c0-.3.3-.6.6-.6h11c.3 0 .6.3.6.6v.3c0 .3-.3.6-.6.6z"/><path class="st12" d="M81.4 206.4h82.3v82.3H81.4z"/><path class="st17" d="M172.7 203.4v75.4l-9.1 9.9v-82.3z"/><path class="st13" d="M81.4 206.4h82.2l9.1-3H93.9z"/><path class="st10" d="M116.6 206.6h11.5v82.2h-11.5z"/><path style="fill:#82574f" d="M81.4 241.4h82.3v11.8H81.4z"/><path style="fill:#4f2f2c" d="M172.7 237.6v11l-8.8 4.4-.3.2v-11.8l.3-.2z"/><path class="st17" d="M91.7 212.3h6.2c.7 0 1.1.2 1 1-.1.7.1 1.6-1 1.6H85.2c-1 0-1-.6-1-1.4 0-.7.2-1.2 1-1.2h6.5zM91.7 216.3h6.2c.7 0 1.1.2 1 1-.1.7.1 1.6-1 1.6H85.2c-1 0-1-.6-1-1.4 0-.7.2-1.2 1-1.2h6.5zM91.7 220.4h6.2c.7 0 1.1.2 1 1-.1.7.1 1.6-1 1.6H85.2c-1 0-1-.6-1-1.4 0-.7.2-1.2 1-1.2h6.5z"/><path class="st7" d="M84.7 274h21.6v10.7H84.7z"/><path class="st8" d="M91.4 283.4c-.2 0-.4-.2-.4-.4v-.2c0-.2.2-.4.4-.4h13.1c.2 0 .4.2.4.4v.2c0 .2-.2.4-.4.4H91.4zm13.4-2.6c0-.2-.2-.4-.4-.4H92.9c-.2 0-.4.2-.4.4v.2c0 .2.2.4.4.4h11.6c.2 0 .4-.2.4-.4v-.2h-.1zm0-2.2c0-.2-.2-.4-.4-.4H95c-.2 0-.4.2-.4.4v.2c0 .2.2.4.4.4h9.4c.2 0 .4-.2.4-.4v-.2zm0-2.1c0-.2-.2-.4-.4-.4H92c-.2 0-.4.2-.4.4v.2c0 .2.2.4.4.4h12.4c.2 0 .4-.2.4-.4v-.2z"/><path class="st7" d="M15.3 273.1h18.2v8.5H15.3z"/><path class="st8" d="M21 280.6c-.2 0-.3-.1-.3-.3v-.2c0-.2.1-.3.3-.3h11c.2 0 .3.1.3.3v.2c0 .2-.1.3-.3.3H21zm11.3-2.2c0-.2-.1-.3-.3-.3h-9.7c-.2 0-.3.1-.3.3v.2c0 .2.1.3.3.3H32c.2 0 .3-.1.3-.3v-.2zm0-1.7c0-.2-.1-.3-.3-.3h-8c-.2 0-.3.1-.3.3v.2c0 .2.1.3.3.3h8c.2 0 .3-.1.3-.3v-.2zm0-1.6c0-.2-.1-.3-.3-.3H21.5c-.2 0-.3.1-.3.3v.2c0 .2.1.3.3.3h10.6c.2 0 .3-.1.3-.3l-.1-.2z"/><path class="st7" d="M26.9 162.7h23.6v11H26.9z"/><path class="st8" d="M34.2 172.5c-.3 0-.4-.2-.4-.4v-.3c0-.3.2-.4.4-.4h14.4c.3 0 .4.2.4.4v.2c0 .3-.2.4-.4.4l-14.4.1zm14.7-2.8c0-.3-.2-.4-.4-.4H35.9c-.3 0-.4.2-.4.4v.2c0 .3.2.4.4.4h12.7c.3 0 .4-.2.4-.4v-.2h-.1zm0-2.2c0-.3-.2-.4-.4-.4H38.2c-.3 0-.4.2-.4.4v.2c0 .3.2.4.4.4h10.3c.3 0 .4-.2.4-.4v-.2zm0-2.2c0-.3-.2-.4-.4-.4H34.8c-.3 0-.4.2-.4.4v.2c0 .3.2.4.4.4h13.7c.3 0 .4-.2.4-.4v-.2zM137.4 278.4h7.2v8.2h-7.2v-8.2zm.4 7.9h6.5v-7.5h-6.5v7.5zM152.8 278.4h7.2v8.2h-7.2v-8.2zm6.9.4h-6.5v7.6h6.5v-7.6zM152.4 286.7h-7.2v-8.2h7.2v8.2zm-.3-7.9h-6.5v7.5h6.5v-7.5z"/><path class="st8" d="M143.1 280.4c-.1.3-.1.6-.2.8-.1.5-.4.9-.7 1.3-.3.3-.6.4-.9.5v1.5h.9v.5H140v-.5h.9V283.1c0-.1 0-.1-.1-.1l-.6-.3c-.1 0-.1-.1 0-.1.2-.4.4-.9.6-1.4-.1-.1-.3-.1-.4-.2l.3-.6h2.4c-.1 0-.1 0 0 0z"/><path class="st8" d="M139 280.4h1.4c0 .1-.1.2-.1.3-.1.1-.1.3-.2.4s0 .1.1.2c.1 0 .1.1.2.1-.2.4-.3.7-.5 1.1-.7-.7-.9-1.4-.9-2.1zM157.1 281.2h-.3c.2-.4.4-.8.6-1.1.3.4.4.8.6 1.1h-.3v3.2h-.6v-3.2zM155.4 280.1c.2.4.4.8.6 1.1h-.4v3.2h-.6v-3.2h-.3c.2-.3.4-.7.7-1.1zM154.3 284.7h4.3v.6h-4.3zM151.2 282.2c-.1 0-.1-.1-.1-.1-.3-.3-.7-.3-.9 0-.1.1-.1.1-.2 0-.2-.2-.4-.3-.6-.2-.1 0-.2.1-.1.2v2.5c0 .3-.2.5-.4.5-.4.1-.8-.3-.7-.6h.4v.2s.1.1.2.1.1-.1.1-.1v-2.6c0-.1-.1-.2-.2-.2-.3-.1-.5 0-.6.2-.1.1-.1.1-.3 0-.3-.3-.7-.3-.9 0l-.1.1c0-.7.6-1.6 2.1-1.7v-.5h.4v.4c.7.1 1.3.3 1.7.9.1.3.1.6.2.9zM80.4 127.8h7.2v8.2h-7.2v-8.2zm.3 8h6.5v-7.5h-6.5v7.5zM95.7 127.8h7.2v8.2h-7.2v-8.2zm6.9.4H96v7.6h6.5l.1-7.6zM95.3 136h-7.2v-8.2h7.2v8.2zm-.4-7.8h-6.5v7.5h6.5v-7.5z"/><path class="st8" d="M86 129.8c-.1.3-.1.6-.2.8-.1.5-.4.9-.7 1.3-.3.3-.6.4-.9.5v1.5h.9v.5h-2.2v-.5h.9V132.5c0-.1 0-.1-.1-.1l-.6-.3c-.1 0-.1-.1 0-.1.2-.4.4-.9.6-1.4-.1-.1-.3-.1-.4-.2l.3-.6H86c-.1-.1-.1-.1 0 0z"/><path class="st8" d="M81.9 129.7h1.4c0 .1-.1.2-.1.3-.1.1-.1.3-.2.4 0 .1 0 .1.1.2.1 0 .1.1.2.1-.2.4-.3.7-.5 1.1-.7-.6-.9-1.3-.9-2.1zM100 130.7h-.3c.2-.4.4-.8.6-1.1.3.4.4.8.6 1.1h-.3v3.2h-.6v-3.2zM98.3 129.5c.2.4.4.8.6 1.1h-.3v3.2H98v-3.2h-.3c.1-.3.3-.7.6-1.1zM97.2 134.2h4.3v.6h-4.3zM94.1 131.7c-.1 0-.1-.1-.1-.1-.3-.3-.7-.3-.9 0-.1.1-.1.1-.2 0-.2-.2-.4-.3-.6-.2-.1 0-.2.1-.1.2v2.5c0 .3-.2.5-.4.5-.4.1-.8-.3-.7-.6h.4v.2s.1.1.2.1.1-.1.1-.1v-2.6c0-.1-.1-.2-.2-.2-.3-.1-.5 0-.6.2-.1.1-.1.1-.3 0-.3-.3-.7-.3-.9 0l-.1.1c0-.7.6-1.6 2.1-1.7v-.4h.4v.4c.7.1 1.3.3 1.7.9 0 0 .2.4.2.8z"/><path class="st20" d="M27.4 177.3h7.2v8.2h-7.2v-8.2zm.4 7.9h6.5v-7.5h-6.5v7.5zM42.8 177.3H50v8.2h-7.2v-8.2zm6.8.3h-6.5v7.6h6.5v-7.6zM42.3 185.5h-7.2v-8.2h7.2v8.2zm-.3-7.9h-6.5v7.5H42v-7.5z"/><path class="st20" d="M33 179.2c-.1.3-.1.6-.2.8-.1.5-.4.9-.7 1.3-.3.3-.6.4-.9.5v1.5h.9v.5h-2.2v-.5h.9V181.9c0-.1 0-.1-.1-.1l-.6-.3c-.1 0-.1-.1 0-.1.2-.4.4-.9.6-1.4-.1-.1-.3-.1-.4-.2l.3-.6H33z"/><path class="st20" d="M28.9 179.2h1.4c0 .1-.1.2-.1.3-.1.1-.1.3-.2.4 0 .1 0 .1.1.2.1 0 .1.1.2.1-.2.4-.3.7-.5 1.1-.6-.6-.8-1.3-.9-2.1zM47.1 180.1h-.3c.2-.4.4-.8.6-1.1.3.4.4.8.6 1.1h-.3v3.2H47l.1-3.2zM45.3 178.9c.2.4.4.8.6 1.1h-.3v3.2H45V180h-.3c.1-.3.4-.7.6-1.1zM44.2 183.5h4.3v.6h-4.3zM41.1 181c-.1 0-.1-.1-.1-.1-.3-.3-.7-.3-.9 0-.1.1-.1.1-.2 0-.2-.2-.4-.3-.6-.2-.1 0-.2.1-.1.2v2.5c0 .3-.2.5-.4.5-.4.1-.8-.3-.7-.6h.4v.2s.1.1.2.1l.1-.1v-2.6c0-.1-.1-.2-.2-.2-.3-.1-.5 0-.6.2-.1.1-.1.1-.3 0-.3-.3-.7-.3-.9 0l-.1.1c0-.7.6-1.6 2.1-1.7v-.3h.4v.4c.7.1 1.3.3 1.7.9.1.1.2.4.2.7z"/></g><path style="fill:#ae835b" d="M218.5 184.2v160.3l-139-21.1V174.8l34.3 2.3 1.8.2 11.1.7 11 .7 23.6 1.7 2.5.1z"/><path style="fill:#9c754e" d="M161.3 180.4v42.1l-23.6-2.3v-41.5z"/><path style="fill:#c99a6b" d="M218.5 184.2v160.3l24.6-17 6.8-4.8 36.9-26.2-.4-137.5z"/><path style="fill:#d9af84" d="M257.2 169.8v32l-9.4 4.2v-32.5z"/><path style="fill:#f9cc9c" d="M257.2 286.3v31.2l-7.3 5.2-2.1 1.6v-31.5z"/><path style="fill:#e8b687" d="m286.4 159-67.9 25.2-69.6-4.7-4-.3-65.4-4.4 95.2-18.7 49.7 1.3 4.5.1z"/><path class="st27" d="m216.2 157.2-78.5 21.5 23.6 1.7 72.5-22.8z"/><path class="st28" d="m226.3 157.4-74.9 22.3-3.4-.3 76.4-22z"/><path class="st29" d="M85.8 317.1V285l35.2 4.3V322zM89.9 290.5l26.7 3.3M89.9 296.4l26.7 3.3M89.9 302.4l26.7 3.2M89.9 308.3l26.7 3.2M89.9 314.1l26.7 3.3"/><path d="m120.9 222.8-35.3-5.5c1.4-2.8 3.4-8.2 3.4-15.4 0-6.9-2.1-12.3-3.4-15.1 11.8.5 23 1.5 34.8 2.7.7 5.1 1.7 9.8 1.7 16.4 0 6.3-.5 12-1.2 16.9z" style="fill:#717171"/><path class="st31" d="M120.9 222.8c1.4-13.1.8-26.2-3.3-31.2-8.9-1.4-35-4.3-35-4.3 2.3 5.4 7.4 18.2 3 29.9l35.3 5.6z"/><g><path class="st32" d="M108.9 204v5.3c0 1.1-.2 2.3-.4 3.4l2.4.3c0-.2 0-.3.1-.5.2-2.1.3-4.1.3-6.2 0-3.1-.4-6.3-1-9.4-.2-.8-.3-1.6-.5-2.4l-2.4-.3c.3 1.3.7 2.6.9 4 .3 2.1.6 3.9.6 5.8zM105.5 202.8c.1 1.5.2 3.1.1 4.6 0 .8-.1 1.5-.2 2.3-.1.8-.3 1.7-.4 2.5l2.4.3c0-.2.1-.4.1-.7.4-2.5.4-5 .3-7.5-.1-2.6-.5-5.1-1-7.7-.2-.8-.3-1.6-.6-2.4l-2.4-.3.3 1.2c.8 2.6 1.3 5.1 1.4 7.7zM112.4 206.4c.1 2.3 0 4.5-.3 6.7l2.5.4c0-.4.1-.9.1-1.4.1-1.7.1-3.4 0-5.2-.1-3.1-.4-6.1-.9-9.1-.2-1-.3-1.9-.5-2.9l-2.4-.3c.3 1.4.5 2.7.7 4 .5 2.7.7 5.3.8 7.8z"/><path class="st32" d="m101.6 211.6 2.4.3c.2-1.2.4-2.4.5-3.6.2-2.6.1-5.1-.3-7.7-.3-2.3-.8-4.6-1.5-6.8l-2.5-.3c1.8 6.1 2.5 12 1.4 18.1zM91.6 192.6l-2.7-.3c2.1 5.9 2.5 17.6.3 21.8.1 0 .2 0 .3.1.7.1 1.5.3 2.2.4.2 0 .3 0 .3-.2.3-1.2.6-2.4.8-3.6.3-2.1.5-4.1.5-6.2 0-2.2-.2-4.5-.6-6.7-.3-1.7-.6-3.5-1.1-5.3z"/><path class="st32" d="m98 211.1 2.6.4c0-.2.1-.5.1-.7.1-.8.3-1.6.3-2.4.2-2.6.2-5.1-.2-7.7-.3-2.4-.9-4.8-1.6-7.2l-2.7-.3c1.8 5.9 2.7 11.9 1.5 17.9zM118.2 207c-.1-1.7-.2-3.4-.4-5.1-.3-2.2-.7-4.4-1-6.6l-2.4-.3c.2 1.4.4 2.7.7 4.1.6 3.3.8 6.5.9 9.8 0 1.6 0 3.1-.2 4.6-.2 1.7-.4 3.4-.7 5.2 0 .2 0 .3.2.3.6.1 1.3.3 1.9.4.3 0 .5.1.8.2v-.3c.1-2 .4-3.9.4-5.9 0-2.1-.1-4.2-.2-6.4zM94.5 206.9c0 .9-.2 1.8-.3 2.7 0 .3-.1.6-.1.9l2.7.4c.2-.8.3-1.7.4-2.5.2-2.2.2-4.5 0-6.8-.2-1.7-.5-3.3-.8-4.9-.3-1.2-.6-2.4-1-3.7l-2.7-.3c.5 2 1 4 1.3 6 .5 2.8.7 5.5.5 8.2z"/></g><g><path class="st28" d="M152.8 326.6c.2 0 .4-.1.4-.3V316c0-.3-.2-.4-.4-.4s-.4.1-.4.3v10.3c0 .2.1.5.4.4"/><path class="st28" d="m146.1 327.5 13.3 2.1c1.4.3 2.5-.8 2.5-2.3V313c0-1.5-1.1-2.9-2.5-3.2l-13.3-2.1c-1.4-.3-2.5.8-2.5 2.3v14.4c0 1.4 1.1 2.9 2.5 3.1m13.3-16.9c1 .2 1.8 1.2 1.8 2.3v14.4c0 1-.8 1.8-1.8 1.7l-13.3-2.1c-1-.2-1.8-1.2-1.8-2.3v-14.4c0-1 .8-1.8 1.8-1.7l13.3 2.1z"/><path class="st28" d="M147.3 318.4c.5-2.1 2.7-3.4 5.5-2.9 2.7.5 4.9 2.5 5.5 4.7l-11-1.8zM154.6 314.4c.2 0 .4-.1.4-.3v-2.5c0-.3-.2-.4-.4-.4s-.4.1-.4.3v2.5c.1.2.3.4.4.4M152.8 314.1c.2 0 .4-.2.4-.3v-2.5c0-.3-.2-.4-.4-.4s-.4.1-.4.3v2.5c0 .2.1.4.4.4M150.8 313.8c.2 0 .4-.1.4-.3V311c0-.3-.2-.4-.4-.4s-.4.1-.4.3v2.5c.1.2.2.3.4.4M185.1 334l13.3 2.1c1.4.3 2.5-.8 2.5-2.3v-14.4c0-1.5-1.1-2.9-2.5-3.2l-13.4-2.1c-1.4-.3-2.5.8-2.5 2.3l.1 14.4c0 1.6 1.2 3 2.5 3.2m13.3-16.9c1 .2 1.9 1.2 1.8 2.3v14.4c0 1-.9 1.9-1.9 1.7l-13.3-2.1c-1-.2-1.8-1.2-1.8-2.3l-.1-14.4c0-1 .8-1.8 1.9-1.7l13.4 2.1z"/><path class="st28" d="M188.3 318.6v4.8c0 1.3 1 2.5 2.2 2.7l2.7.4c1.2.2 2.2-.7 2.2-2v-4.8l-1.3-.2v5.1c0 .3-.2.4-.4.3-.2 0-.4-.2-.4-.4v-5.1l-5-.8z"/><g><path class="st28" d="m165.4 327.5 13.5 2.2c.2 0 .4-.1.4-.3s-.2-.4-.4-.4l-13.5-2.2c-.2 0-.4.1-.4.3.1.2.2.5.4.4"/><path class="st28" d="m165.5 330.7 13.3 2.1c1.4.3 2.5-.8 2.5-2.3v-14.4c0-1.5-1.1-2.9-2.5-3.2l-13.3-2.1c-1.4-.3-2.5.8-2.5 2.3v14.4c0 1.6 1.2 3 2.5 3.2m13.3-16.9c1 .2 1.9 1.2 1.9 2.2v14.4c0 1-.8 1.8-1.9 1.7l-13.3-2.1c-1-.2-1.8-1.2-1.8-2.3v-14.4c0-1 .8-1.8 1.8-1.7l13.3 2.2z"/><path class="st28" d="M176.1 317.1v11.8l-.6-.1V317z"/><path class="st28" d="m172.9 319.2.5.6 2.4-2.4 2.5 3.2.5-.4-3-4zM168.9 315.9v11.9l-.6-.2v-11.8z"/><path class="st28" d="m165.6 318 .6.6 2.4-2.4 2.4 3.2.6-.5-3-3.9z"/></g></g><g><path class="st28" d="m213.3 215-23.1-1.6V187l23.1 1.4V215zm-21.6-3 20.2 1.3v-23.2l-20.2-1.3V212z"/><path class="st28" d="m204.1 211.3-5-.4v-13.6l5 .8z"/><path class="st28" d="m209.2 200.7-15.2-1.1 7.6-8.6z"/></g><g><path style="opacity:.5;fill:#ddd;enable-background:new" d="M79.5 287.5v1.3l-71.4 1L.8 273h4.3v.7l-3-.1 6.7 15.2z"/><path class="st1" d="m11.3 284.5 58.2.2H11.3z"/><path style="opacity:.5;fill:#bababa;enable-background:new" d="M79.5 286.3v1.2l-70.7 1.3-6.7-15.2 3 .1v.6l4.4 13.6z"/><path class="st2" d="m11.3 284.5 58.2.2H11.3z"/><path style="opacity:.5;fill:#989898;enable-background:new" d="M79.5 284.7v1.6l-70 1.6-6.2-13.6h1.8l6.2 10.2h.3l43.5.2h10.5z"/><path style="fill:#989898" d="M79.5 284.7h-10z"/></g><path class="st27" d="m247.8 173.5 9.4-3.7-118.2-6.7-8.3 1.6z"/><g><path class="st0" d="m264.7 382-160.9 91.3 200 51.8c10 2.6 20.7 1 29.5-4.4L484.6 428l-219.9-46z"/><path class="st1" d="m331.8 517 143-87.7-210.6-43.6-152.7 86.7 190.9 49.1c10 2.6 20.6 1 29.4-4.5z"/><path class="st2" d="m330.4 513.3 134.7-82.5-201.2-41.3-144.6 82L301 517.8c10 2.5 20.5.9 29.4-4.5z"/><g class="st3"><path class="st4" d="M263.4 393.2 127 470.6l172.6 43.5c10 2.5 20.5.9 29.2-4.5l126.4-77.4-191.8-39z"/></g><path class="st37" d="M141.4 460.2c0 7.3 5.1 13.7 12.2 15.3l144.9 33.1c8.6 2 17.6.7 25.3-3.8l106.1-63.6-288.5 19z"/><path class="st38" d="M475.3 273.7c-13.3-22.9-57.7-16.9-88.3-22.3-17.4-3.1-149.8-25-149.8-25l20.5-4.1c5-1 10.1-1.1 15-.3 62.6 10.1 113 18.9 175.7 28.9 4 1.1 13.8 4.5 21.7 14.2.4.4.7.9 1 1.3 1.6 2.3 3.1 4.8 4.2 7.3z"/><path d="m477.5 299-7.8 78.3c-.8 8.4-2.7 16.6-5.7 24.6-6.5 16.6-17.3 30-34 39.1l-50.4 27.6s-26.3 5.9-35.2 7.1c-7.7 1.1-12.5-1.9-12.6-8.5l-3.1-136.8c-.4-18.9-13-34.2-30.8-37.3l-143.8-25.9 83-40.8s132.4 21.9 149.8 25c30.6 5.4 75.1-.4 88.3 22.3 3.3 7.7 4.1 16.6 2.3 25.3z" style="fill:#9b9fa1"/><path d="M377.5 469.8s-64.2 30.9-64.8 31l-167.3-39.3c-10.6-2.3-17.9-11.7-17.9-23l-1.4-48.4v-2.4l-2.4-80.8c0-1.1.1-2.2.3-3.2l.3-1.3c.6-2.6 1.7-5.1 3.2-7.2 4.4-6.5 12.1-10.4 19.9-9l129.2 23.5c17.5 3.2 29.7 18.3 29.8 37l.3 79.4v2.4l.1 60.4 70.7-19.1z" style="fill:#4c4e53"/><path class="st37" d="m147.8 461.4-.9-.3c-.1 0-.3-.1-.5-.1l-.4-.1c-.3-.1-.7-.2-.9-.3l-.9-.4c-1.2-.6-2.4-1.3-3.4-2.2l-.4-.3-.4-.3c-.3-.3-.5-.4-.7-.7-.4-.5-.8-1-1.2-1.6-.4-.5-.8-1.1-1.1-1.7-.1-.3-.3-.6-.4-.9l-.2-.4-.1-.4c-.5-1.2-.8-2.5-1.1-4-.2-1.3-.3-2.7-.3-4l-.3-8-1.2-32.1-2.3-64.1-1.1-32.1-.1-1v-1.1c0-.4.1-.7.1-1.1l.2-1c.3-1.4.8-2.8 1.6-4 1.5-2.4 3.6-4.5 6.2-5.7 1.3-.7 2.7-1.1 4.1-1.2.7-.1 1.5-.1 2.2-.1.4 0 .7 0 1.1.1.1 0 .4 0 .5.1l.5.1 7.9 1.4 63.2 11.6 31.6 5.7 15.8 2.9 7.9 1.4 2 .4c.7.1 1.3.3 2 .4l1 .3c.3.1.7.2 1 .3.7.2 1.3.4 2 .7 2.6 1 5 2.4 7.2 4l1.6 1.3c.5.4 1 .9 1.5 1.4.3.3.5.4.8.7l.7.8c.4.5.9 1 1.3 1.6 3.4 4.4 5.5 9.7 6.3 15.1l.3 2.1c0 .7.1 1.3.1 2.1v28l-.2 64.1-.1 32.2-.1 16v4c0 1.3.2 2.7.7 4 .1.3.3.7.4.9.1.3.3.6.5.8.4.5.8 1 1.3 1.4 1.1.8 2.4 1.2 3.7 1.6-1.3-.3-2.6-.7-3.7-1.5-.5-.4-1-.8-1.4-1.3-.2-.3-.4-.5-.5-.8-.1-.3-.3-.6-.4-.9-.5-1.2-.7-2.6-.8-4 0-1.3 0-2.7-.1-4l-.3-16-.3-32.2-.5-64.2-.1-16v-11.9c0-.7 0-1.3-.1-1.9l-.3-1.9c-.8-5.2-2.8-10.1-6-14.2l-1.2-1.5-.7-.7c-.2-.3-.4-.4-.7-.7-.4-.4-.9-.9-1.4-1.3l-1.5-1.2c-2.1-1.5-4.3-2.8-6.8-3.7-.6-.3-1.2-.4-1.9-.7-.3-.1-.7-.2-.9-.3l-1.2-.8c-.7-.1-1.2-.3-1.9-.4l-2-.4-7.9-1.4-15.8-2.8-31.8-5.9-63.1-11.6-7.9-1.5-.5-.1c-.1 0-.3 0-.4-.1-.3 0-.6-.1-.9-.1-.6 0-1.2 0-1.8.1-1.2.1-2.4.5-3.5 1-2.3 1.1-4.1 2.8-5.4 5-.7 1-1.1 2.3-1.3 3.4l-.1.9c0 .3-.1.6-.1.8v1.9l1 32.3 1.7 64.2.8 32.1.1 8c0 1.3 0 2.7.2 4 .2 1.3.5 2.6 1 3.9l.1.4.2.4c.1.3.3.6.4.8.3.6.7 1.2 1 1.7.4.5.8 1 1.2 1.6.2.3.4.4.7.7l.3.3.4.3c.9.8 2.1 1.6 3.3 2.3l.9.4c.3.1.7.3.9.4l.4.1c.1 0 .3.1.4.1l1.2.6z"/><path class="st38" d="m379.6 468.7-60 32-.8.3c-.8.2-1.6.3-2.3.4-5.3.3-10-3.7-10-9.7l-.5-145.2c0-18.6-12.2-33.8-29.8-37L147.1 286c-7.8-1.4-15.5 2.5-19.9 9-1.5 2.2-2.5 4.6-3.2 7.2.8-4 2.4-7.8 4.9-11.2l4.8-6.5c5.4-7.3 12.4-13.3 20.3-17.3l143.8 25.9c17.8 3.2 30.4 18.4 30.8 37.3l3.1 136.8c.1 6.7 4.9 9.6 12.6 8.5 8.9-1.2 35.3-7 35.3-7z"/><path style="fill:#77797f" d="m360.5 256.8-44.3 24.3-15.4 8.4-133.2-23.9 16.9-8.2 44.8-22z"/><path style="fill:#4a4c50" d="m360.5 256.8-44.3 24.3-131.7-23.7 44.8-22z"/><path class="st31" d="m293.1 265-9.1 5.3-6.6-1.2c-3.1-.5.9-4.1 5.8-5.2 1-.2 2-.3 2.7-.1l7.2 1.2zM307.2 267.3l-9.3 5.4-9.5-1.6 9.1-5.4zM314.1 274.5l-.8.2c-1.2.3-2.3.4-2.9.3l-8.2-1.4 9.3-5.4 8.2 1.3c3 .4-.7 3.8-5.6 5z"/><path class="st37" d="M474.3 317.9 330.1 420.4l-23.7 7.9-22.2-5.3.2 13.3-140.6-29.9-.4-12.4-17.3-4-.1-2.5 19.7 4.6.2 12.2 136.2 29.1-.2-13.3 24.5 5.8h.1l22.7-7.7L473.1 316z"/><ellipse transform="rotate(-76.932 474.35 309.69)" cx="474.3" cy="309.7" rx="15.5" ry="10" style="fill:#5c5c5c"/><ellipse transform="rotate(-78.1 475.71 309.694)" cx="475.7" cy="309.7" rx="13.4" ry="7.3" style="fill:#404040"/><path d="M466.3 308.7c0-1.6.3-3.1.7-4.6.4-1.6 1.1-3.1 2-4.4.8-1.3 2-2.7 3.4-3.6 1.3-.9 3.1-1.3 4.5-.9-1.5.2-2.8.8-4 1.9-1.1.9-2 2.1-2.8 3.4-.8 1.2-1.5 2.6-2.1 4-.6 1.4-1.2 2.8-1.7 4.2z" style="fill:gray"/><path d="M232.5 530.8c-8.4-2.4-62-16.9-79.4-20.6-8.4-1.7-14.6-10.5-21.4-15.4-4.9-3.5-5-8.9-4-15.3 1.2-7.1 4-12 8.7-17.5 5.5-6.3 8.6-14.2 12.2-21.7 3.7-7.4 8.2-15.1 15.3-19.4 9.4-5.6 20.7-4 30.8-2.1 0 .7 21.9 4.1 24.1 4.5 8.2 1.5 16.4 3.1 24.5 4.6 4.1.8 8.2 1.5 12.2 2.3 1.6.3 4.5.3 5.7 1.1 1.6 1.1.5 2.1-.3 3.8-3.9 7.4-7.2 15-10.1 22.9-3.1 8.9-17.6 45.6-18.3 72.8z" style="opacity:.6;fill:#1a1a1a;enable-background:new"/><linearGradient id="SVGID_1_" gradientUnits="userSpaceOnUse" x1="445.433" y1="5497.801" x2="550.188" y2="5304.021" gradientTransform="matrix(.9969 -.04451 -.08714 .9956 157.256 -4873.294)"><stop offset="0" style="stop-color:#000"/><stop offset=".021" style="stop-color:#141414"/><stop offset=".076" style="stop-color:#454545"/><stop offset=".135" style="stop-color:#717171"/><stop offset=".198" style="stop-color:#989898"/><stop offset=".264" style="stop-color:#b8b8b8"/><stop offset=".336" style="stop-color:#d2d2d2"/><stop offset=".414" style="stop-color:#e6e6e6"/><stop offset=".503" style="stop-color:#f4f4f4"/><stop offset=".611" style="stop-color:#fdfdfd"/><stop offset=".795" style="stop-color:#fff"/></linearGradient><path d="M161.1 409.3c-19.5 20.5-41.3 78.2-45.3 98.4 21.3 6.1 102 28.1 102 28.1 7.4-35 26-84.3 45.5-104.4-18.4-4-102.2-22.1-102.2-22.1z" style="fill:url(#SVGID_1_)"/><path class="st32" d="M155.1 442.2c-8.7 14.7-18.1 36.1-24.2 53.4 1.7.5 3.6.9 5.5 1.5 6.4-17.6 15.5-38.8 24.3-53.8-1.9-.3-3.8-.7-5.6-1.1zm61.8 13.4c-4.1 7.1-8.4 15.3-12.4 23.9-5 10.7-9.8 22.1-13.8 32.7 2.7.8 5.4 1.5 8 2.2 6.1-16.4 14.1-34.6 22.1-49.6 1.4-2.7 2.8-5.2 4.2-7.6-2.7-.4-5.3-1-8.1-1.6zm-12.7-2.8c-8.1 13.7-16.4 32-23.2 49.1l10.4 2.8c3.4-8.5 7.1-17.3 11-25.8 4-8.7 8.2-16.8 12.4-23.9-3.5-.7-7.1-1.5-10.6-2.2zm-41.4-9c-7.7 13-15.7 30.8-21.9 46.9l8.2 2.3c6.3-16.2 14.1-33.7 21.8-47.5-2.9-.5-5.6-1.1-8.1-1.7zm20.1 4.4c-7.8 13.3-16.1 31.6-22.4 48l8.2 2.3c6.4-16.5 14.7-35.1 22.6-48.5-2.8-.6-5.6-1.3-8.4-1.8zm11.1 2.3c-8 13.2-16.4 31.8-22.9 48.5l8.2 2.3c6.5-16.8 14.8-35.1 22.7-49.1-2.6-.5-5.3-1-8-1.7zm-21-4.5c-7.8 13.2-15.9 31.2-22.2 47.5l8.2 2.3c6.3-16.4 14.5-34.7 22.3-48-2.8-.6-5.6-1.2-8.3-1.8z"/><g><path d="M365.8 348.5c-.8-.1-1.8.1-2.8.8l-21.8 15.5c-2 1.4-3.5 4.3-3.5 6.9l-.1 26.6c0 3.2 2 4.7 4.4 3.6.3-.1.5-.3.8-.4l21.8-15.5c2-1.4 3.5-4.3 3.5-6.9l.1-26.6c.1-2.4-.9-3.8-2.4-4z" style="fill:#453605"/><path d="M366 349.1c-.3.1-.5.3-.8.4l-20.6 14.7c-1.9 1.3-3.2 4.1-3.3 6.6l-.1 25.5c0 2.1.9 3.6 2.3 3.8-2.3 1-4.1-.4-4.1-3.5l.1-25.5c0-2.5 1.3-5.2 3.3-6.6l20.6-14.7c.9-.6 1.9-.8 2.6-.7z" style="fill:#c79700"/><path d="m368.3 352.8-.1 25.5c0 2.5-1.3 5.2-3.3 6.6l-20.6 14.7c-.3.1-.5.3-.8.4-1.3-.3-2.4-1.6-2.3-3.8l.1-25.5c0-2.5 1.3-5.2 3.3-6.6l20.6-14.7c.3-.1.5-.3.8-.4 1.3.3 2.3 1.7 2.3 3.8z" style="fill:#ecb712"/><path style="fill:#a3800b" d="m343.1 367.2 7.6-.3-.1 24.8-7.7 7.2z"/><path style="fill:#c49a0e" d="m350.7 366.9 14.6-15.4-22.2 15.7z"/></g><ellipse transform="rotate(-16.301 230.197 242.556)" class="st31" cx="230.2" cy="242.5" rx="5.7" ry="3"/><g><path class="st31" d="M263 337.2c.7-.3 1.2-.4 1.9-.7 0 0 .2.1.3.1 1.2 1.6 2.4 3.2 3.6 4.7.7.8 1.3 1.7 1.9 2.5 0 0 .1.1.1.2.2-2.4.4-4.7.6-7 1.2 0 2.7 1.6 3.1 3.1.4 1.8-.4 4-2.9 4.1.7.1 1.4.3 2.1.5.1 0 .3.1.4.3.6.8 1.2 1.6 1.9 2.4-1.1-.3-2.1-.5-3.2-.8.1.1.1.2.1.3.5.8 1.1 1.5 1.6 2.3.1.1.1.3.1.4-.2 2.6-.4 5.2-.7 7.8v.2c-.7-.1-1.4-.3-2.1-.5.3-3.5.6-6.9.8-10.4-.7-.1-1.4-.3-2.2-.5v.3c-.3 3.2-.5 6.3-.8 9.4 0 .2 0 .3.1.5.6.8 1.1 1.5 1.7 2.3 0 .1.1.2.1.3-.1.9-.1 1.9-.3 2.9-.1-.1-.1-.1-.2-.3-1.2-1.6-2.4-3.2-3.7-4.9-.1-.1-.1-.3-.1-.5.3-3.9.7-7.7 1-11.6 0-.2 0-.4-.1-.5-1.7-2.3-3.4-4.5-5.2-6.8.3.1.3 0 .1-.1z"/><path class="st31" d="M259.2 342.2c1.5 2 3.1 4 4.5 5.9v-.1c.1-.8.1-1.8.2-2.7 0-.1-.1-.3-.1-.4l-3.6-4.8c-.1-.1-.1-.3 0-.4.4-.4.8-.9 1.2-1.4.1.1.1.2.3.3 1.5 2 3.1 4 4.6 6 .1.1.1.2.1.3-.3 2.9-.5 5.9-.8 8.8v.1c-.1-.1-.1-.1-.1-.2-2.2-2.9-4.4-5.7-6.5-8.7-.1-.1-.1-.2-.1-.3-.2-.7 0-1.6.3-2.4zM258.5 347.9c0 .1 0 .2.1.3 4.1 5.5 8.3 10.9 12.4 16.5.1.2.3.4.2.7-.1.8-.1 1.7-.2 2.7l-.2-.2c-4.2-5.5-8.4-11.1-12.5-16.6-.1-.1-.1-.3-.1-.3.1-.9.1-1.8.2-2.7v-.1l.1-.3zM278.6 358.7c.7.1 1.4.3 2.2.5.1-.9.1-1.8.2-2.7.5.1.9.3 1.4.3.6.1.9.4 1.3.8.7.9 1.3 1.7 2 2.7 0 .1.1.2.1.3-.3 1.9-2.1 2.9-4 2.4-2.1-.6-3.3-2.4-3.2-4.3z"/><path class="st31" d="M278.6 358.7c-.7-.1-1.4-.3-2.2-.5.1-2 .3-4 .5-6l.1.1c.6.8 1.1 1.5 1.7 2.3 0 .1.1.2.1.3 0 1.3-.1 2.5-.2 3.8zM274.9 349.4c.9.3 2 .4 2.9.7 0 0 .1 0 .1.1.7.8 1.2 1.7 1.9 2.5h-.1c-.9-.2-1.9-.4-2.8-.7-.1 0-.1 0-.2-.1-.7-.8-1.2-1.7-1.9-2.4.1 0 .1 0 .1-.1z"/></g></g><g><path class="st53" d="m294.3 20.7-15.4 54.9H259l15.5-54.9z"/><path class="st54" d="m486.4 20.7-15.5 54.9h-192l15.4-54.9z"/><g><path class="st31" d="M304.6 59.5h-2.9l3.9-22.8h2.9l-3.9 22.8zM317.7 36.7l4 18.5 10.5-18.5h3.9l-3.9 22.8h-2.9l1.6-9 1.9-9.2-10.3 18.2H320L315.9 41l-1.4 9.8-1.5 8.7h-3l3.9-22.8h3.8zM341.7 50.6l-1.6 8.9h-3l3.9-22.8h7.6c2.3 0 4.1.6 5.4 1.9 1.3 1.2 1.8 2.9 1.7 5-.2 2.2-1 3.9-2.6 5.1-1.6 1.2-3.6 1.9-6.1 1.9h-5.3zm.4-2.5h5.1c1.6 0 2.9-.4 3.9-1.2 1-.8 1.6-1.9 1.8-3.4.2-1.3-.1-2.3-.8-3.1-.7-.8-1.7-1.2-3.1-1.2h-5.4l-1.5 8.9zM366.8 50.3h-5.2l-1.6 9.2h-3l3.9-22.8h6.8c2.4 0 4.2.6 5.4 1.8 1.2 1.2 1.8 2.8 1.6 4.9-.1 1.4-.6 2.7-1.6 3.8-.9 1.1-2.2 1.9-3.7 2.4l3.5 9.6v.2h-3.1l-3-9.1zm-4.8-2.4h4.3c1.5 0 2.7-.4 3.8-1.2 1-.8 1.7-1.9 1.8-3.2.2-1.3-.1-2.3-.8-3.1-.7-.7-1.7-1.1-3.1-1.2h-4.6l-1.4 8.7zM390.6 49H381l-1.4 8.1h11.1l-.4 2.4h-14l3.9-22.8h13.9l-.4 2.4h-11l-1.2 7.3h9.6l-.5 2.6zM406.8 53.7c.2-1.7-.6-2.9-2.6-3.7l-2.7-1-.9-.4c-3.1-1.4-4.5-3.3-4.2-5.8.1-1.2.5-2.4 1.3-3.4s1.8-1.7 3-2.2c1.2-.5 2.6-.8 4-.7s2.6.4 3.7.9c1.1.6 1.9 1.4 2.5 2.4.6 1 .8 2.2.7 3.5h-3c.1-1.4-.2-2.5-.9-3.3-.7-.8-1.8-1.1-3.1-1.2-1.4 0-2.6.3-3.6 1s-1.5 1.6-1.7 2.8c-.2 1.6.7 2.7 2.8 3.5l2.3.8 1.2.5c3 1.3 4.3 3.4 4.1 6.1-.1 1.3-.6 2.4-1.3 3.3s-1.8 1.7-3.1 2.2c-1.3.5-2.7.7-4.1.7-1.4 0-2.7-.3-3.9-.9-1.2-.6-2.1-1.4-2.7-2.5-.6-1-.9-2.2-.8-3.6h3c-.1 1.3.3 2.4 1.1 3.2.8.8 2 1.2 3.5 1.2s2.7-.3 3.7-1c1-.4 1.6-1.3 1.7-2.4zM415.8 59.5h-2.9l3.9-22.8h2.9l-3.9 22.8zM429.6 59.8c-1.4-.1-2.7-.4-3.8-1-1.1-.7-1.9-1.7-2.5-3-.6-1.3-.9-2.7-1-4.3-.1-1.2.1-2.8.4-4.7.4-1.9.9-3.5 1.8-5 .8-1.5 1.9-2.7 3.1-3.6 1.7-1.2 3.5-1.8 5.6-1.8 2.2.1 4 .8 5.2 2.3 1.3 1.5 2 3.5 2.1 6.1.1 1.1-.1 2.5-.3 4.2-.3 1.7-.7 3.3-1.4 4.7-.7 1.4-1.6 2.6-2.6 3.6-1.9 1.7-4.1 2.6-6.6 2.5zm7.9-14.3c.1-2.1-.3-3.6-1.1-4.8s-2-1.7-3.5-1.8c-1.4-.1-2.6.3-3.7 1.1s-2 2-2.7 3.6c-.7 1.6-1.1 3.6-1.3 6l-.1 1c-.1 2 .3 3.6 1.1 4.8.8 1.1 2 1.8 3.5 1.8 2 .1 3.6-.7 4.9-2.1s2.2-3.5 2.6-6.2c.2-1.3.3-2.4.3-3.4zm-1.9-14.9h3.6l-4.8 4.6H432l3.6-4.6zM459.7 59.5h-2.8l-8.1-17.6-3.1 17.6h-3l3.9-22.8h2.8l8.1 17.8 3.1-17.8h2.9l-3.8 22.8z"/></g></g><g><path class="st53" d="m223.7 84.4-15.4 54.9h-19.8l15.4-54.9z"/><path class="st54" d="m468.9 84.4-15.4 54.9H208.3l15.4-54.9z"/><g><path class="st31" d="M230.5 123.3h-2.7l3.7-21.6h2.8l-3.8 21.6zM235.7 123.3l3.7-21.6h5.6c1.8 0 3.3.4 4.6 1.3 1.3.9 2.2 2.1 2.7 3.6.6 1.6.7 3.3.5 5.2l-.2 1.1c-.4 3.2-1.7 5.6-3.7 7.5-2 1.9-4.5 2.8-7.6 2.8h-5.7l.1.1zm6.1-19.2-3 16.9h2.7c2.1 0 3.9-.7 5.3-2s2.4-3.1 2.8-5.4c.4-1.8.5-3.4.4-4.7-.2-1.6-.7-2.7-1.5-3.6-.9-.9-2-1.3-3.5-1.3h-3.2zM268.8 113.4h-9.1l-1.3 7.7H269l-.4 2.3h-13.3l3.7-21.6h13.1l-.4 2.3h-10.4l-1.2 6.9h9.1l-.4 2.4zM288.1 123.3h-2.7l-7.7-16.7-2.9 16.7H272l3.7-21.6h2.7l7.7 16.8 2.9-16.8h2.8l-3.7 21.6zM310.5 104.1h-6.7l-3.3 19.3h-2.8l3.3-19.3h-6.7l.4-2.3h16.2l-.4 2.3zM313.4 123.3h-2.8l3.7-21.6h2.8l-3.7 21.6zM331.8 113.8H323l-1.7 9.5h-2.8l3.7-21.6h13l-.4 2.3h-10.2l-1.3 7.4h8.8l-.3 2.4zM338 123.3h-2.8l3.7-21.6h2.8l-3.7 21.6zM359.6 116.5c-.4 2.2-1.4 4-3.1 5.3s-3.5 1.9-5.7 1.9c-1.3-.1-2.5-.4-3.5-1s-1.8-1.6-2.3-2.7c-.6-1.2-.9-2.5-.9-3.9-.1-.8 0-1.6.1-2.4l.3-1.8c.5-3.3 1.6-5.8 3.4-7.7s4-2.8 6.6-2.7c2 .1 3.6.7 4.8 2 1.2 1.3 1.8 3.1 1.9 5.3h-2.8c-.1-3-1.3-4.7-3.6-4.9l-.5-.1c-1.9-.1-3.4.6-4.7 2.1-1.2 1.4-2.1 3.4-2.4 5.9l-.3 2.2-.1 1.3c-.1 1.8.3 3.3 1 4.3.7 1.1 1.8 1.6 3.2 1.7 1.5.1 2.7-.3 3.7-1.1s1.7-2 2.2-3.7h2.7zM375 117.7h-8.7l-3 5.6h-3l11.7-21.6h2.4l4.2 21.6h-2.7l-.9-5.6zm-7.5-2.4h7.1l-1.8-10-5.3 10zM398 116.5c-.4 2.2-1.4 4-3.1 5.3-1.6 1.3-3.5 1.9-5.7 1.9-1.3-.1-2.5-.4-3.5-1s-1.8-1.6-2.3-2.7c-.6-1.2-.9-2.5-.9-3.9-.1-.8 0-1.6.1-2.4l.3-1.8c.5-3.3 1.6-5.8 3.4-7.7s4-2.8 6.6-2.7c2 .1 3.6.7 4.8 2 1.2 1.3 1.8 3.1 1.9 5.3h-2.8c-.1-3-1.3-4.7-3.6-4.9l-.5-.1c-1.9-.1-3.4.6-4.7 2.1-1.2 1.4-2.1 3.4-2.4 5.9l-.3 2.2-.1 1.3c-.1 1.8.3 3.3 1 4.3.7 1.1 1.8 1.6 3.2 1.7 1.5.1 2.7-.3 3.7-1.1s1.7-2 2.2-3.7h2.7zM403.9 123.3h-2.8l3.7-21.6h2.8l-3.7 21.6zM417 123.6c-1.4-.1-2.6-.4-3.6-1s-1.8-1.6-2.4-2.8-.9-2.6-1-4.1c-.1-1.2.1-2.7.4-4.5.3-1.8.9-3.4 1.7-4.8.8-1.4 1.8-2.5 2.9-3.4 1.6-1.1 3.3-1.7 5.3-1.7 2.1.1 3.8.8 5 2.2 1.2 1.4 1.9 3.3 2 5.7.1 1-.1 2.4-.3 3.9-.3 1.6-.7 3.1-1.3 4.5-.6 1.4-1.4 2.5-2.5 3.5-1.8 1.8-3.8 2.6-6.2 2.5zm7.5-13.5c.1-2-.3-3.5-1-4.5-.7-1.1-1.9-1.6-3.3-1.7-1.3-.1-2.5.3-3.6 1.1-1 .8-1.9 1.9-2.6 3.4-.7 1.5-1.1 3.4-1.2 5.7l-.1 1c-.1 1.9.3 3.5 1 4.6.8 1.1 1.9 1.7 3.3 1.7 1.9.1 3.4-.6 4.7-2 1.2-1.4 2.1-3.4 2.4-5.9.3-1.4.4-2.5.4-3.4zM422.7 96h3.4l-4.6 4.3h-2.4l3.6-4.3zM445.6 123.3h-2.7l-7.7-16.7-2.9 16.7h-2.8l3.7-21.6h2.7l7.7 16.9 2.9-16.8h2.8l-3.7 21.5z"/></g></g><g><circle class="st55" cx="178.3" cy="101.4" r="7.9"/><circle class="st55" cx="97.9" cy="209.4" r="5.6"/><path class="st56" d="M97.9 209.4v-108h80.4"/></g><g><circle class="st55" cx="491.3" cy="72.3" r="7.9"/><circle class="st55" cx="491.3" cy="372.3" r="5.6"/><path class="st56" d="M491.3 372.3v-300"/></g></svg>