<svg version="1.1" id="Layer_1" xmlns="http://www.w3.org/2000/svg" x="0" y="0" viewBox="0 0 500 500" style="enable-background:new 0 0 500 500" xml:space="preserve"><style>.st1{fill:#ffd8b9}.st3{fill:#c39373}.st4{fill:#f1c1a2}.st5{fill:#ac7b5c}.st6,.st7{fill:#daaa8b}.st7{opacity:.5;enable-background:new}.st8{fill:#ffefd0}.st9{fill:#814432}.st10{fill:#966147}.st11{fill:#946445}.st12{fill:#fff}.st15{fill:#2e2e2e}.st16{opacity:.5;fill:#c39373;enable-background:new}.st24{fill:#d48b69}.st29{fill:#de9f7e}.st31{fill:#212524}.st32{font-family:&apos;MyriadPro-Regular&apos;}.st33{font-size:8.0122px}</style><g id="Layer_4"><path d="M500 64.2c-79.8-17.7-161.8-31.4-246.4-27.9-21.3.9-43.3 3.1-61.7 10.6s-32.1 21.8-28.6 35.5c2.9 11.4 16.2 23.9 4.8 33-3.3 2.6-8 4.2-12.6 5.6-23.8 7.2-49.7 11.2-72.2 20.2-34.8 13.9-57.7 38.7-67.6 64.5-9.9 25.8-8 52.7-2.2 78.6 10.8 48.8 35.8 97 83.4 134.2 67.9 53.2 176.1 78.9 283.3 81.4 39.8.9 80.4-1.4 120-7V64.2z" style="opacity:.5;fill:#ffd8b9;enable-background:new"/><path class="st1" d="M486.9 300.8v25.5l-8 4.6-103.2-14.4-9.1-1.3-119.2-54.1-71.7-45.7 13.5-14.6s3.4-2 9-4.3c7.6-10.7 19.8-18.1 27.4-19.6 5.2-5.6 21.3-5.8 26.2-5.4 0 0 3.4-11.3 11.7-15.7 8.3-4.4 15.2 1.2 19.3 7.7 4.1 6.4 13.9 10.9 16.8 11.1 2.6-.8 7.1-6.1 8.4-7.9 1.3-1.9 2.5-3.7 3.7-3.7 3.7.8 9.6.8 13.9-1.6 4.3-2.4 25.9-12.7 53.9-3.7 7.8 2.5 16.7 6.5 26 12.1 7.5 4.5 15.2 9.9 22.8 16.3.9.8 1.8 1.5 2.7 2.3 14.6 12.7 28.6 28.9 39.4 48.5 10.9 19.6 16.5 41.6 16.5 63.9z"/><path d="M321.5 198.5c.9 1 1.6 2 2.2 3.3.5 1.2.7 2.5.7 3.8 0 .6-.1 1.3-.2 1.9l-.3 1.8c-.2 1.2-.5 2.4-.9 3.6-.7 2.3-1.6 4.6-2.7 6.8s-2.4 4.2-3.8 6.2h-.1c-.1 0 0 0 0-.1 1.3-2 2.4-4.2 3.4-6.4s1.8-4.5 2.4-6.8c.3-1.2.6-2.3.8-3.5s.4-2.4.3-3.5c-.1-1.1-.3-2.3-.9-3.2-.5-1-1.3-1.8-2.2-2.5-.4-.3-.5-.9-.2-1.3s.9-.5 1.3-.2c.2 0 .2 0 .2.1z" style="fill:#7d4d45"/><path class="st3" d="M303.3 196.3c-.2 1.2.2 2.4.6 3.4.5 1.1 1.1 2.1 1.7 3.2.3.5.6 1.1.9 1.6.3.6.5 1.1.7 1.7.4 1.2.8 2.3 1.1 3.5.7 2.3 1.2 4.7 1.8 7.1.5 2.4 1 4.8 1.3 7.2v.1h-.1c-.5-2.4-1.1-4.7-1.7-7.1-.6-2.3-1.3-4.7-2.1-6.9-.4-1.1-.8-2.3-1.3-3.4-.2-.6-.5-1.1-.8-1.6l-.8-1.6c-.5-1.1-1.1-2.2-1.4-3.4-.2-.6-.3-1.2-.3-1.9 0-.6.1-1.3.3-1.8 0-.2.1-.2.1-.1z"/><path class="st4" d="M261.6 173.9c-.8 1.6-1.6 3.3-1.3 5 .4 1.9 2 3.3 3.4 4.6.7.6 1.3 1.3 1.7 2.1.4.8.5 1.8 0 2.6-.5.9-1.5 1.3-2.5 1.3s-1.9-.3-2.8-.7c-3.9-1.7-7.2-4.6-9.3-8.3-.7-1.2-1.3-2.6-2.1-3.7s-2-2.2-3.4-2.5c-.6-.1-1.3-.1-1.9-.4-.6-.2-1.2-.9-1-1.5.1-.3.3-.5.6-.7 3.7-.3 7.1-.2 8.9-.1 0 0 3.1-10.3 10.6-15.1h1c1.9.3 3.6 1.9 3.9 3.9.3 1.9-.7 3.8-1.6 5.5-1.5 2.6-2.9 5.3-4.2 8z"/><path class="st3" d="M257.3 164c.4-.6.9-1.1 1.5-1.5.6-.4 1.3-.6 2-.5.8.2 1.5.9 1.9 1.6.4.8.5 1.7.6 2.5.1 1 .2 2 0 3s-.8 2-1.4 2.8c-1.2 1.9-2.4 3.7-3.5 5.6-.4.6-.8 1.3-1 2s-.3 1.5.1 2.2c.3.7 1 1.2 1.5 1.8.5.6.8 1.5.3 2.1-.3.4-.9.5-1.5.4-.5-.1-1-.5-1.4-.8-2.3-2-3.8-4.8-4.3-7.7-.5-3.1.8-6 2.2-8.7.8-1.6 1.9-3.2 3-4.8z"/><path class="st5" d="M260.7 166c1.6-.1 3.3 3.8.9 6.6s-6.9 5.7-6.4 9.3c-1-3.6-.8-7.1 1.6-9.6 2.6-2.6 1.8-6.2 3.9-6.3z"/><path class="st4" d="M332.8 184.6c3.8 4.8 5.7 11 5.4 17.1-.3 6.1-2.9 12-7.1 16.4-3.3 3.4-5.4 7.8-8 11.7-1 1.5-2 3-3.5 4.1-2.6 1.9-6.4 1.8-8.9-.2-.9-.7-1.6-2-1.4-3.2 1.1-6.9-.4-14.3-4.1-20.2-.6-.9-1.2-1.8-2.1-2.4-.9-.6-2.1-.8-3-.4-1.1.6-1.6 1.9-2.1 3-.5 1.2-1.3 2.4-2.6 2.5-1.1 0-2-.9-2.8-1.8-1.8-2.2-3.6-4.5-5.5-6.7-1.3-1.7-2.8-3.7-2.1-5.7.7-2.1 3.2-2.8 5.3-3.4 12-3.3 22.6-11.3 29.2-21.8-1.7-.5-3.6-.2-5.3.4s-3.3 1.5-5 2c-3.4 1-7.2.5-10.2-1.3h.3c2.6-.8 7.1-6.1 8.4-7.9 1.3-1.9 2.5-3.7 3.7-3.7 3.7.8 9.6.8 13.9-1.6 1.7-1 6.4-3.3 13.1-5l.2.2c1.1 1.4.2 3.4-.7 5-2.1 3.6-4.2 7.1-6.3 10.7-1.4 2.3-2.8 5-2.2 7.6.9 1.7 2.3 3.1 3.4 4.6z"/><path class="st6" d="M303.3 200c-1.6-3-.2-6.6 3.5-8.4s7.2-3.6 10-8.4c2.8-4.8 7.8-7.4 9.1-8-1.5 2.8-.3 9.1 3.7 12.4 4 3.3.4 11.7-1.7 17.9-2.1 6.2-8.2 19-13 24.5.7-2.3 0-6.1 0-6.1-1.5.9-4.1 3.8-4.1 3.8-.1-4.5-4-21.2-7.5-27.7z"/><path class="st3" d="M324.9 208.5c.6-3.4.6-7-.4-10.3-1-3.3-3.2-6.3-6.3-7.9-.7-.4-1.5-.6-2.2-.2-.8.5-.8 1.6-1 2.5-.3 1.3-1.4 2.4-2.6 3-1.2.6-2.6.9-3.9 1.2-.5.1-1 .2-1.4.5-.4.3-.7.8-.6 1.3.2.6.9.8 1.5 1.1.6.2 1.2.8 1.1 1.4-.2.6-1.1.7-1.8.5-.7-.2-1.5-.4-1.9.2-.3.3-.2.9 0 1.3s.5.7.8 1.1c1.1 1.4 1.4 3.2 1.7 4.9.9 5.4 2.2 10.8 3.9 16.1.2.6.4 1.2.8 1.6.6.5 1.4.5 2.1.3 2.5-.8 4.1-3.6 5.4-5.7 1.6-2.5 2.8-5.1 3.7-7.9.4-1.8.8-3.4 1.1-5z"/><path class="st5" d="M315.1 199.8c-.7-.3-1.4-1-1.2-1.7.2-.6 1-.9 1.6-1 1.4-.2 2.7-.5 4.1-.3 1.4.2 2.8.8 3.5 1.9.6.9.8 2.1.9 3.2.4 5.6-1 11.3-3.8 16.2-.2.3-.3.5-.6.7-.3.2-.6.2-.8-.1-.1-.2-.1-.4-.1-.6v-3.7c-1.8 2.8-3.7 5.5-5.5 8.3-.3.4-.7 1-1.2.9-.6 0-1-.7-1.2-1.3-.4-1.1-.7-2.2-1.1-3.3-.6-2.1-1.1-4.2-1.6-6.4l-2.1-9c-.1-.3-.1-.7 0-1 .2-.5.8-.8 1.3-.9.5-.1 1.1-.1 1.6-.4.5-.3.7-1.1.2-1.4l4.5 1.5c.5.2 1 .3 1.6.3.4 0 1.4-.2 1.4-.8 0-.5-1.2-.9-1.5-1.1z"/><path class="st3" d="M328.2 173.5c-.7.8-1.4 1.6-1.9 2.5-.5.9-1 1.9-1.1 2.9-.1 1 0 2.1.3 3.1.4 1 .9 1.9 1.6 2.7 1.3 1.6 3 3 4.5 4.5s2.9 3.2 4 5c2.3 3.7 3.5 8 3.4 12.3 0 4.3-1.1 8.5-2.7 12.5 1.5-4 2.5-8.2 2.4-12.5 0-4.3-1.2-8.5-3.5-12.1-1.1-1.8-2.5-3.4-4-4.9-1.5-1.5-3.2-2.8-4.6-4.5-.7-.9-1.2-1.8-1.6-2.9-.4-1-.5-2.2-.3-3.3.2-1.1.7-2.1 1.3-3 .7-.8 1.4-1.5 2.2-2.3z"/><path class="st7" d="M289.9 202.1c0-1.2.6-2.3 1.5-3 .9-.7 2.1-1.1 3.2-1.2.8-.1 1.7 0 2.1.7.3.5.2 1.1-.1 1.5-.2.3-.6.4-.9.6-1.6.9-2.7 2.6-2.8 4.3 0 .3 0 .7-.1 1-.1.4-.6.8-1 .5-.2-.1-.2-.3-.3-.5-.1-.2-.3-.4-.4-.7-.6-1-1.2-2.1-1.2-3.2z"/><path class="st6" d="M294.7 197.2c-.6.3-1.2.5-1.7.8-.5.3-1 .6-1.4 1-.3.4-.6.9-.7 1.4-.1.5-.2 1.1-.1 1.7.2 1.2.6 2.4 1.1 3.6.5 1.2 1.1 2.3 1.7 3.4v.1h-.1c-.7-1-1.4-2.1-2.1-3.3-.6-1.1-1.1-2.3-1.4-3.7-.1-.7-.2-1.4-.1-2.1 0-.4.2-.7.3-1.1.2-.3.4-.6.7-.9.3-.2.6-.5.9-.6.3-.1.6-.3 1-.4.6.1 1.3 0 1.9.1.1-.1.1 0 0 0 .1 0 .1 0 0 0zM304.5 174.3c.9-.1 1.8-.5 2.7-.9.8-.4 1.6-.8 2.5-1.2.6-.3 1.3-.6 1.8-1.1s.9-1.2.8-1.9c-.1-.7-.8-1.3-1.5-1.2-.5.1-.8.5-1.3.8-1 .6-2.4.3-3.5.8-.6.3-1.1.8-1.6 1.3-.4.4-.8.9-1.2 1.3-.3.3-1 .8-1.1 1.2-.1.9 1.8 1 2.4.9z"/><path class="st8" d="M271.6 164.2c-1.1.6-1.7 2-1.3 3.1.4 1.2 1.7 1.8 3 2.1 1.2.3 2.5.5 3.5 1.2 1.1.9 1.5 2.3 1.8 3.6.3 1.4.5 2.8 1.4 3.9.6.8 1.8 1.4 2.7 1 1-.5 1.3-1.8 1-2.9-.2-.9-.8-1.7-1.3-2.5-1.6-2.4-3.3-4.8-4.6-7.4-1-1.9-4.1-3.3-6.2-2.1zM265.2 173.4c0 1.4.4 2.9.9 4.2.2.6.4 1.2 1 1.4.4.1.9 0 1.2-.3.3-.3.5-.7.7-1.2.5-1.3.6-2.7.4-4.1-.2-1.2-.8-3.3-2.2-3.7-1.4-.3-2 2.7-2 3.7z"/><path class="st6" d="M238.2 233.5c-2.6-4.1-6.6-7.1-10.4-10.2-3.8-3.1-6.2-7.1-8.7-11.3-.9-1.5-.1-3.4 1-4.8 1.1-1.3 2.6-2.4 3.5-3.9 1-1.8 1.1-4 2-5.8.9-1.7 2.5-2.9 3.1-4.7.4-1.4.2-2.9.2-4.3-.1-3 .8-6.1 2.5-8.6.8-1.3 1.9-2.6 1.6-4.1-.2-.8-.8-1.6-1.6-1.8-.8-.3-1.8-.1-2.4.5-8.4 7.5-19.6 12.1-25.3 21.8-.6 1.1-1.2 2.2-1.4 3.4-.1.8 0 2.1.5 2.7.6.7 2 .5 2.8.3 1-.3 1.8-.7 2.8-1.1s1.9-.7 2.9-.5c1.3.2 2.5 1.4 2.7 2.7.3 1.6-.8 2.9-2 3.9-1.4 1.2-3.4 1.7-5.2 2.1-2 .4-4.1.7-6 1.4s-3.7 2.1-4.4 4.1l41.8 18.2z"/><path class="st9" d="M198.3 196.6c1.5-2.4 3.3-4.7 5.3-6.8 2-2.1 4.1-4 6.4-5.7 2.3-1.7 4.8-3.2 7.4-4.5 2.6-1.3 5.3-2.3 8.2-2.8l-.2.1c1.9-1.4 4-2.3 6.2-3.1 2.2-.8 4.4-1.3 6.7-1.7 2.3-.4 4.5-.6 6.8-.7 2.3-.1 4.6 0 6.8.2-2.3 0-4.6 0-6.8.2-2.3.2-4.5.5-6.7.9s-4.4 1-6.5 1.8c-2.1.8-4.2 1.7-5.9 3l-.1.1h-.1c-2.8.5-5.4 1.5-8 2.7-2.6 1.2-5 2.7-7.3 4.3-2.3 1.6-4.5 3.5-6.5 5.5-2.2 2.1-4.1 4.2-5.7 6.5z"/><path class="st3" d="M228 176.4c.8-.4 1.9-.8 2.5-.1.4.4.4 1 .2 1.5s-.5.9-.8 1.4c-1.4 1.9-2.5 4.1-3.1 6.4-.7 2.6-1 5.2-1.4 7.9-.5 2.6-1.3 5.3-2.9 7.4-.7.8-1.7 1.6-2.7 1.3-.6-.2-.8-.5-.9-1.2 0-.4 0-.8-.1-1.1-.1-.3-.3-.6-.5-.9-.5-.6-.9-1.1-1.4-1.7-.4-.5-.7-.8-.8-1.5-.1-1.6 1.2-3.2.7-4.8-.3-1.1-1.6-1.9-1.7-3.1-.1-1 .6-1.9 1.5-2.5.9-.5 1.9-.8 2.7-1.3.9-.5 1.4-1.2 1.6-2.2.2-1 .9-1.5 1.6-2.1 1.6-1.4 3.6-2.4 5.5-3.4z"/><path class="st3" d="M224.8 186.9v5.2c0 1.2 0 2.4-.4 3.5-.3.9-.9 1.7-1.5 2.4-.4.5-.7 1-1.3 1.2-.1 0-.1.1-.2.1-.8.3-1.7-.1-2.3-.7-.5-.6-.8-1.5-.8-2.4 0-.8.1-1.7.1-2.6 0-.8 0-1.7-.4-2.5-.3-.7-.9-1.3-1.3-2s-.5-1.7.1-2.3c.5-.5 1.3-.5 2-.8.9-.3 1.6-1.2 2.1-2 .5-.9.9-1.8 1.5-2.6.4-.6 1.3-1.4 1.5-.3.2 1 .5 2 .7 3 .1.4.1.8.2 1.3v1.5z"/><path class="st5" d="M224.8 186.9v5.2c0 1.2 0 2.4-.4 3.5-.3.9-.9 1.7-1.5 2.4-.4.5-.7 1-1.3 1.2-.2-.3.1-.5.1-.8.1-.4-.2-.9-.4-1.2-.3-.4-.6-.7-.8-1.1-.5-.9-.7-1.9-.8-2.9-.1-1.1-.3-2.2-.4-3.3-.1-.6-.2-1.3 0-2 .2-.6.6-1.1 1.1-1.5.5-.4 1-.7 1.6-.9.6-.3 1.3-.7 2-.5.3.1.6.2.9.5-.1.4-.1.9-.1 1.4z"/><path class="st10" d="M222.4 195.3c-.2-.3-.4-.5-.6-.8-.5-.7-.7-1.6-.7-2.5 0-.9.1-1.7.3-2.6.1-.3.1-.7.3-1s.5-.5.9-.4c.3.1.6.4.6.8 0 .3 0 .7-.1 1-.1.8-.1 1.7.2 2.5.2.6.5 1.2.6 1.9.1.6.1 1.4-.3 1.9-.1.2-.3.3-.5.4-.7.2-.4-.7-.7-1.2z"/><path class="st6" d="M486.9 300.8v25.5l-8 4.6-103.2-14.4c-5.6-7.1-20.8-7.8-21.4-16.8 4.5-1.3 22.7-10.8 27.3-12.1 5.3-2.4 9.4-3.8 14.4-2.9 5 .9 10.1 2.5 15.1 1.4 4-.9 7.5-3.4 11.5-4 5.1-.8 10.2 1.6 14.5 4.4 4.3 2.8 8.5 6.1 13.5 7.5 5 1.4 11.2.3 13.8-4.2 2.5-4.2.9-9.5-.6-14.2-2-5.7-4.5-11.4-6-17.2-1.6-6.1-3.2-12.2-5-18.3-3.7-11.9-8.6-23.6-16.1-33.7-4.4-5.9-9.5-11.1-14.7-16.2-3.9-3.9-7.7-7.8-11.6-11.7-1.3-1.3-9.3-7.4-5.2-8.8.1 0 .3-.1.5-.1 7.5 4.5 15.2 9.9 22.8 16.3.9.8 1.8 1.5 2.7 2.3 14.6 12.7 28.6 28.9 39.4 48.5 10.7 19.8 16.3 41.8 16.3 64.1z"/><path class="st3" d="M486.9 300.8v20.3c-9.8 1.7-20 1.3-29.9.4-30.2-3-66.5-7.7-93.7-21 6.3-4.7 22.9-12.2 30.6-10.7 5.6 1.1 11.3 3.9 16.7 2.2 4-1.3 7.4-5.1 11.7-4.6 2.6.3 4.7 2.1 6.9 3.6 4.4 2.9 9.7 4.1 14.8 5.3 5.7 1.3 11.3 2.6 17 4 1.3.3 2.8.6 4 0 1.8-1 2.1-3.4 2.1-5.5v-15.9l4.8.3c.2-15.1-5.5-29.8-13.2-42.8-7.7-13-17.2-24.8-25.8-37.3-2.6-3.8-5.2-8.3-4.4-12.7.9.8 1.8 1.5 2.7 2.3 14.6 12.7 28.6 28.9 39.4 48.5 10.7 19.3 16.3 41.3 16.3 63.6z"/><path class="st11" d="M486.9 300.8v22.3c-1 0-2-.2-3-.4-4-.9-7.7-3-11.2-5.1-1.4-11.2-1.9-22.6-1.4-33.9 2.3 3.9 4.7 7.9 7 11.8 2.2-10.6-1.3-21.5-4.8-31.7-2.8-8.1-5.6-16.3-9.3-24-7-14.7-17-27.7-26.9-40.5-1.7-1.7-3-3.9-4.4-5.8-1.5-1.9-1.7-2.9-1.9-5 14.6 12.7 28.6 28.9 39.4 48.5 10.9 19.5 16.5 41.5 16.5 63.8z"/><path class="st9" d="M251.9 171.6c.4-1.5.9-2.9 1.5-4.4.6-1.4 1.3-2.8 2.1-4.1 1.6-2.6 3.5-5.2 6.3-7 1.3-.9 2.8-1.6 4.3-2 1.5-.5 3.2-.7 4.9-.6 1.7.1 3.3.7 4.7 1.5 1.4.8 2.7 1.9 3.8 3.1 2.1 2.4 3.8 4.9 5.9 7.1 1 1.1 2.1 2.1 3.2 3.1 1.2.9 2.3 1.8 3.6 2.6 2.6 1.6 5.4 2.7 8.3 3.5 2.9.8 5.9 1.3 9 1.4-3.1.3-6.2 0-9.2-.5-.8-.1-1.5-.3-2.3-.6l-1.1-.3-1.1-.4-1.1-.4-1.1-.5c-.4-.2-.7-.3-1.1-.5l-1-.6c-1.4-.7-2.7-1.6-3.9-2.6-1.2-1-2.4-2.1-3.5-3.2-2.2-2.3-4-4.8-6-7-1-1.1-2.1-2.1-3.3-2.8-1.2-.7-2.6-1.2-4-1.3-2.8-.3-5.7.7-8.3 2.1-1.2.7-2.4 1.7-3.4 2.8-1 1.1-2 2.3-2.8 3.5-.9 1.2-1.7 2.5-2.4 3.9-.8 1.5-1.4 2.8-2 4.2z"/><path class="st9" d="M300.1 174.5c1.1-.6 2.1-1.5 3.1-2.4.9-.9 1.8-1.8 2.7-2.8 1.7-2 3.2-4 4.6-6.2l.1-.2h6.5c2 0 4.1-.2 6-.8 1-.3 1.9-.7 2.8-1.1.9-.5 1.8-1 2.6-1.5.4-.3.8-.6 1.3-.9.2-.2.5-.3.7-.4.2-.1.5-.3.7-.4 1-.5 2-.9 3-1.2 2-.7 4-1.2 6.1-1.6 2.1-.4 4.1-.7 6.2-1 4.2-.5 8.4-.6 12.5-.4 8.4.4 16.6 2 24.5 4.8 7.9 2.8 15.3 6.7 22.1 11.5-7.1-4.2-14.6-7.7-22.5-10.2-3.9-1.2-7.9-2.2-12-2.9-4-.7-8.1-1.1-12.2-1.3-4.1-.2-8.2 0-12.3.4-2 .2-4.1.5-6.1.9s-4 .9-5.9 1.5c-1 .3-1.9.7-2.8 1.1-.9.4-1.7.9-2.6 1.5-1.8 1.1-3.7 2.1-5.8 2.6-2.1.6-4.3.7-6.3.6-2.1 0-4.2-.2-6.2-.2l.4-.2c-.8 1.1-1.6 2.1-2.4 3.1-.8 1-1.7 2-2.6 2.9-.9.9-1.8 1.9-2.8 2.7-1.2.7-2.2 1.5-3.4 2.1zM413.9 175.2c5.4 3.2 10.6 6.8 15.6 10.7 4.9 3.9 9.6 8.1 14.1 12.7 4.4 4.5 8.6 9.3 12.4 14.3 3.8 5 7.4 10.3 10.6 15.8 3.2 5.5 6 11.1 8.5 17l1.8 4.4 1.6 4.5c.6 1.5 1 3 1.5 4.5l.7 2.3c.2.8.4 1.5.6 2.3 1.8 6.1 3 12.3 3.9 18.5l.6 4.7.5 4.7.2 2.4.1 2.4.2 4.7c-1.1-12.5-3.3-24.9-7-36.9-3.6-12-8.6-23.5-14.9-34.3-6.3-10.8-13.8-20.9-22.4-30-8.6-9.4-18.1-17.7-28.6-24.7z"/><path class="st12" d="M317.7 213.4v.2c-.2 1-.7 2-1.3 2.9-.2.3-.4.6-.6.8-1.1 1.5-2.3 3-3.4 4.6-.1.1-.2.3-.4.3s-.4-.2-.5-.5c-.6-1.5-1-3.1-1.4-4.6-.4-1.4-.7-2.9-1.1-4.3-.2-.7-.4-1.4-.5-2.2-.1-.5-.6-1.4-.3-1.8.5-.8 1.5-.2 2.1 0 1 .3 2 0 3.1 0h.4c1.1.1 2.2.6 2.9 1.5.8.8 1.2 2 1 3.1z"/><path d="M316.4 216.5c-.2.3-.4.6-.6.8-1.1 1.5-2.3 3-3.4 4.6-.1.1-.2.3-.4.3s-.4-.2-.5-.5c-.6-1.5-1-3.1-1.4-4.6-.4-1.4-.7-2.9-1.1-4.3-.2-.7-.4-1.4-.5-2.2-.1-.5-.6-1.4-.3-1.8.5-.8 1.5-.2 2.1 0 1 .3 2 0 3.1 0 .3.7.3 1.5 0 2.4-.4 1.5-.8 3-.8 4.6 0 .4 0 .8.1 1.1.1.4.4.7.7.8.6.2 1.3-.3 1.8-.7.4-.2.8-.4 1.2-.5z" style="fill:#a2b9b9"/><path d="M318.1 213.7c-.3.5-.7 1-1.1 1.4.8-2.7-.8-5.7-3.2-3.2-2.4 2.5-4.1 1-4.8.1-.7-.9-2.7-8.1-3.1-10 5.1-1.7 12.7.2 14.6 2.8.4.5.6 1.1.7 1.7.2 2-1 4.4-3.1 7.2z" style="fill:#454545"/><ellipse transform="rotate(-76.985 312.86 204.438)" class="st15" cx="312.9" cy="204.4" rx="1.6" ry="3.7"/><path class="st15" d="M318.1 213.7c-.1-.1-.1-.2-.1-.3-.2-.5-.4-1-.3-1.6 0-.5.2-1 .3-1.5.1-.6.1-1.2.2-1.7.1-.6.2-1.2.6-1.6.5-.7 1.2-.9 1.9-.6.2 0 .3.1.4.2.3 1.9-.9 4.3-3 7.1z"/><path class="st7" d="M237.9 210.5c4.7 2.3 9.3 4.9 13.6 7.8 8.9 5.8 17 12.7 26.1 18.1 6.7 4 13.8 7.1 20.6 10.9 17.3 9.6 32.6 23.2 51.2 29.9 15.2 5.4 31.6 5.8 47.6 6.4 2.2.1 4.4.2 6.4.9 3.8 1.4 6.4 4.9 8.8 8.2.6.8 1.2 1.7 1.3 2.7.1 1.4-.8 2.6-1.7 3.7-4.4 5.7-9.1 11.5-15.4 14.9-5.6 3.1-12.1 4-18.5 4.9-30.3 4.2-60.8 8.5-91.3 6.8-9.4-.5-18.9-1.6-27.7-5-18.5-7.2-31.6-23.5-43.3-39.6-8.9-12.2-17.5-24.7-25.8-37.4-2.1-3.3-4.3-7.3-2.8-10.9.7-1.7 2.2-3 3.1-4.6 1.6-2.9 1.4-6.6 2.8-9.6 1.4-2.9 4.1-4.8 6.7-6.6 3.9-2.7 7.7-5.4 11.6-8 2.8-1.9 7.5-6.8 11-7.1 3.7-.3 4.3 4.3 5.9 6.6 2.3 3.5 6.3 5.3 9.8 7z"/><path class="st16" d="M247.9 222c4.3 3.3 8.4 7 13 9.9 4.2 2.6 8.7 4.5 13.1 6.8 12.4 6.5 23 16 34.1 24.5 3.4 2.6 6.9 5.2 10.6 7.4 6.6 3.8 13.9 6.4 21.1 8.9 5.3 1.9 10.7 3.7 16.1 5.1 8 1.9 16.6 2.8 23.1 7.8 1.4 1.1 2.8 2.5 3 4.3.3 2.1-1.2 4.2-3 5.3-1.9 1.1-4.1 1.4-6.2 1.7-8.6 1.1-17.3 2-26 2.6-6.6.4-13.2.7-19.7-.8-7.9-1.9-15-6.4-22.7-9-12.1-4.1-25.7-3.4-37-9.3-5.3-2.8-9.8-6.9-14.2-11-3.8-3.6-7.6-7.4-10.5-11.8-3.6-5.5-5.7-11.9-9.1-17.6-2.8-4.8-6.5-9.2-10.8-12.8-3.3-2.7-7-5-9.9-8.2-2-2.2-3.6-5-3.4-7.9.3-3.6 3.2-8.5 6.3-10.3 3.3-2 5.6 0 8.7 1.4 8.5 3.7 16.3 7.5 23.4 13z"/><path class="st1" d="M185.2 264.5c-2.7-6.9-9.2-17.5-16.3-20.7-3.6-1.6-7.5 1.4-11 2.5-4.8 1.5-9.8 2.4-14.8 2.6-7.4.4-14.8-.6-22.1-1.6-7.6-1-15.2-2.1-22.7-3.8-7.8-1.8-15.4-4.3-23.1-6.5-24.4-7-49.7-10.6-75.1-10.8v152.6c5.7 1 11.6 1.2 17.3 1.2 43.3-.3 88.6-10.7 120.6-39.8 12.8-11.7 23.1-26 35.8-37.7 3-2.8 6.2-5.4 8.6-8.8 6-8.3 6.5-19.7 2.8-29.2z"/><path d="M122.7 309.5c-1.5-1.7-3.6-3-5.7-4.1-7.4-3.8-15.6-6.1-23.5-6.7-7.4-.6-14 1.3-21.3.9-18.3-1.2-36.3-1.1-54.2 0-6 .4-11.9.8-17.6 1.9-.1 0-.2 0-.3.1v20c13.8 2.5 27.7 5.1 41.5 7.6 13.2 2.4 26.4 4.8 39.5 5.1 13 .3 26-1.8 36-7.8 3-1.8 5.8-4 7.2-7 1.2-3 .9-7-1.6-10z" style="fill:#735c45"/><path class="st16" d="M188.9 269c-.4-2.1-1.9-3.9-3.3-5.5-2.6-3-5.3-6-7.9-9.1-1.8-2.1-3.7-4.2-6.2-5.4-5.1-2.3-11.6 2.8-16.3 4.7-6.6 2.7-13.3 5.2-20.1 7.2-13.5 3.9-27.7 6-41.7 4.4-6.8-.8-13.4-2.4-20.2-3.1-8.1-.8-16.2-.3-24.3-.5-16.3-.5-32.5-4-47.4-10.4l-1.3 1.3V377c58.2 2.2 117.1-16.1 163.6-51.3 4.4-3.3 8.7-6.8 11.7-11.3 3.2-4.7 4.9-10.3 6.5-15.9 2.3-8 4.4-16.1 6.5-24.1.2-1.7.7-3.6.4-5.4z"/><linearGradient id="SVGID_1_" gradientUnits="userSpaceOnUse" x1="337.007" y1="1341.366" x2="449.013" y2="1341.366" gradientTransform="translate(0 -1118)"><stop offset=".198" style="stop-color:#ffd8b9"/><stop offset="1" style="stop-color:#fff;stop-opacity:.5"/></linearGradient><path d="M427.9 222.1c-2-4.7-3.7-9.5-6-14.1-3.6-7.2-8.4-13.8-14.3-19.4-6.2-5.9-13.5-10.7-21.6-13.2-8.1-2.6-17.1-2.9-25.1-.1-1.2.4-2.5.9-3.5 1.8-1.1.9-1.9 2.2-2.4 3.6-4.6 11.5 5.6 25.4-.1 36.3-3 5.8-9.5 8.6-14.2 13.1-2.3 2.2-4.3 5.4-3.5 8.5.4 1.6 1.5 2.9 2.6 4.1 1.6 1.8 3.3 3.6 5.3 5.1 7.6 5.4 17.9 4.2 26.9 6.7 4.7 1.3 9.2 3.7 12.9 6.9 3.7 3.1 6.7 7.1 10.9 9.5 6.4 3.6 14.3 2.9 21.4 1.2 7.1-1.6 14.3-4 21.6-3.5 5.2.4 10.2.5 10.1-6 0-4.2-1.9-7.6-4.5-10.7-7.2-8.8-12.1-19.1-16.5-29.8z" style="opacity:.5;fill:url(#SVGID_1_);enable-background:new"/><linearGradient id="SVGID_2_" gradientUnits="userSpaceOnUse" x1="262.211" y1="1354.946" x2="344.411" y2="1354.946" gradientTransform="translate(0 -1118)"><stop offset=".198" style="stop-color:#ffd8b9"/><stop offset="1" style="stop-color:#fff;stop-opacity:.5"/></linearGradient><path d="M323.3 235.8c-1.6 2.2-3.3 4.5-5.8 5.5-3.7 1.5-7.9-.3-11.3-2.6-8.1-5.6-13.5-14.1-19.3-22-2.3-3.1-4.7-6.2-7.9-8.2-3.3-2-7.6-2.6-10.9-.7-2 1.2-3.4 3.3-4.3 5.5-3.3 7.9-.8 17.4 4.5 24.1 5.4 6.7 13.1 11.1 20.9 14.6 7.9 3.5 16.1 6.2 23.5 10.5 2.2 1.2 4.2 2.6 6.6 3.5 7.2 2.8 16.1.1 20.6-6.2 3.5-4.9 4.2-11.3 4.5-17.3.2-3.8.2-7.7-.9-11.3-1-3.3-5.3-10.5-9.8-8.9-1.9.7-3.4 4-4.5 5.5-2.1 2.7-4 5.3-5.9 8z" style="opacity:.5;fill:url(#SVGID_2_);enable-background:new"/><g><linearGradient id="SVGID_3_" gradientUnits="userSpaceOnUse" x1="488.226" y1="-272.302" x2="637.538" y2="-272.302" gradientTransform="matrix(.00242 1.1088 .6132 -.0278 514.74 -232.779)"><stop offset="0" style="stop-color:#b0b0b0"/><stop offset="1" style="stop-color:#333"/></linearGradient><path d="M328.5 308.5c1.2 13.4 1.7 29.9 1.8 47.6.1 17.8-.5 34.3-1.5 47.8-1.6 21.1-4.2 34.9-7.3 35.1l46.4-1.4c4.9-.2 8.9-37.3 8.8-82.8-.1-45.6-4.2-82.2-9.2-82.1l-46.4 1.4c3.1 0 5.8 13.7 7.4 34.4z" style="fill:url(#SVGID_3_)"/><path style="fill:#858585" d="m332.6 354.9 44.2-1.3v2.1l-44.2 1.4z"/><path d="M335.7 403.5c1-13.4 1.6-29.9 1.5-47.7 0-17.7-.6-34.2-1.8-47.6-1.6-20.9-4.3-34.4-7.4-34.3l39.5-1.1c4.9-.2 9 36.4 9.2 81.8.1 45.4-3.8 82.4-8.8 82.5l-39.5 1.1c3.1 0 5.7-13.7 7.3-34.7z" style="fill:none"/><path d="M368.1 436.3c4.8-.1 8.6-36.7 8.6-81.5-.1-44.8-4.1-81-8.9-80.7v-1.3c5.1-.2 9.2 36.5 9.3 82 .1 45.5-3.9 82.6-8.9 82.8l-.1-1.3z"/><path d="M375.1 290.5c-19.1.7-41.6 1.2-59-5.5l-1.9-1.2c-6.7-14.5-28.4-30.3-41.7-39.9-10.2-7.5-20.6-16.4-32.5-20.8l-2.5-1.6c-7-5-12.4-11.1-20.8-14.4-8.3-2.9-18.3-1.8-27.2-4.2l-2.2-1.2c-9.6-3.4-17.1-6.7-25.4-11.5-12.5-8.2-27.5-12.3-40.8-20.4-16.7-10.9-34.2-21.4-42.6 2.1-4.7 13.3 9.1 30.2 26.3 43.6 11.6 9.1 28.6 9.6 42.1 19 7.6 5.5 16 11 20.9 18.7l-.4 1c-3.5.4-6.9 1.2-10.4 2.4-8.6 2.9-14.1 7.8-23.4 9.3-11 1.7-21.5 0-32.2.2-13.5.1-24.5 2.2-37.3-.2-10.5-2.2-21.2-2-32.3-.8l-1.1.1c-4.8-1.9-16.7-4-30.8-5.2v42c13.8 6.8 35.3 6 50.7 8.3 5.8 1.3 16.1 1.6 20 5.4l-2 1.9c-6.5 5.4-27 1.1-34.3.6-10.6-.9-22-1.7-32.9-1.1-.5 0-1 .1-1.5.1V391c4.3 1.8 8.7 3.6 12.9 5.3 7.7 3.1 15.4 6.3 23.5 7.3l-1.7.1c-6.5 4.2-5 15.8 1.2 17.7 9.9 3.1 21 9.2 31.1 14.1 9.7 4.3 19.7 10.9 31 10.9 12 0 24.1-4.9 36-5.5l2.1-.1c34.7 5.3 77.3 3.5 111.3-3.1 24.1-4.6 46.2-11.8 70.6-11.1 27.3.4 57.1 2.1 92.7 4.2 29.6 1.3 59.4 3.1 89.2 5.8V290c-42.3-.1-82.2-.3-124.7.5zM81.5 368.3c.1.1.1.2.2.3h-.4c.1-.2.1-.2.2-.3zm-70.4-6.2c-.3-.5-.7-.9-.9-1.3 22 2.1 44.9-2.8 65.8 7.2l-.9-.1c-1.6-.5-3.1-.6-4.7-1.1-20.5-3.7-39.6 1.8-59.3-4.7zm101.2 44.6c-5.4 4.1-21.2 3.9-29 5.1-5.6-4.8-13.2-7.5-20.9-8.8l-11.8.7-1.4-.1c19.2-1.3 41.4-1.5 59.4 1.3.8.2 1.5.1 2.3.4h.7l-.2.6c.5.3 1.2-.1.9.8z" style="fill:#e7b292"/><path class="st24" d="M500 413.7c-10.9-.7-21.8-1.2-32.8-1.5-53.4-1.8-106.6.7-159.5 5.6-19.5 1.7-38.1 9.4-58.1 11.6-26.1 2.9-53.9 2.1-79.9 1.6-16.9 0-32.2.2-48.6 3.4-12.6 2.3-34.6 6.7-40-6.6l-.6.1c-9.2 6.4-33.9-9.4-48.8-10.2.9 1.8 2.3 3.2 4.2 3.7 9.9 3.1 21 9.2 31.1 14.1 9.7 4.3 19.7 10.9 31 10.9 12 0 24.1-4.9 36-5.5l2.1-.1c34.7 5.3 77.3 3.5 111.3-3.1 24.1-4.6 46.2-11.8 70.6-11.1 27.3.4 57.1 2.1 92.7 4.2 29.6 1.3 59.4 3.1 89.2 5.8v-22.9zM83.5 363.4c.5.9.6 1.5 1.1 2.1 3.8 5.3 22.2 14.8 26 5.1 3.6-8.4-21.9-7.8-27.5-7.5l.4.3zM104.8 215.5c11.6 9.1 28.6 9.6 42.1 19 7.6 5.5 16 11 20.9 18.7l-.1.4c9.2 1 18.6 1 28.4-.3-13.8-5.2-24.7-14-36.7-21.8-8.7-5.3-35.6-14.7-30.6-26.3-13.2 5.8-32.9-12.2-40.3-19.9-4.7-5.4-7.7-11.4-8.1-17.7-.7 1.3-1.3 2.7-1.8 4.3-4.8 13.2 9.1 30.2 26.2 43.6zM106.2 319.8c5.7-9.2-15.5-5.6-19.6-5.2l.1.9c1.5 5.3 15.9 10.5 19.5 4.3zM115.6 401c.1 5.4 10.8 11.6 16.7 8.4 8.6-4.4-10.2-7.7-16.8-8.6l.1.2zM81.3 368.5c-3.2-5-11.1-9.4-16.2-12-14.5-6.1-31.3-5.2-46.6-5.9-7.5-.3-13.2-2.1-18.5-4.6v23.6c17.2 6.8 31 7.4 50.3 4.3 11-1.7 21.2-1.4 32.3-2.6-.2-.9-.7-1.9-1.3-2.8zm-6.2-.7c-1.6-.5-3.1-.6-4.7-1.1-20.5-3.7-39.6 1.9-59.3-4.7-.3-.5-.6-.9-.9-1.3 22 2.1 44.9-2.8 65.8 7.2l-.9-.1zM74.6 304.3c-5-3.3-12.3-3-18.1-3.8-10.4-1.3-48.2-1.4-49.5-13.2 0 0-.8.5-.6.5-1.9-.1-4.2 1.7-6.5 2.4V302c13.8 6.8 35.3 5.9 50.7 8.3 5.8 1.3 16.1 1.6 20 5.4l-2 1.9c-6.5 5.4-27 1.1-34.3.6-10.6-.9-22-1.7-32.9-1.1-.5 0-1 .1-1.5.1v1.1c21.2-1.1 42.4 9 63.4 4.9 10.5-2 23.3-10.6 11.3-18.9z"/><path class="st24" d="M48.4 398.9c-10.4-1.3-18.4-5.6-27.5-6.5-7.6-.7-14.3-1.9-20.9-3.7v2.3c4.3 1.8 8.7 3.6 12.9 5.3 7.7 3.1 15.4 6.3 23.5 7.3l-1.7.1c-3.6 2.4-4.8 7-4 11 2.9-2.3 6.5-4.1 9.7-5.4 23.4-9.7 55.7 20.6 76.2-4.1-19.7-14.5-44.7-4.1-68.2-6.3zm63.9 7.8c-5.4 4.1-21.2 3.9-29 5.1-5.6-4.8-13.2-7.5-20.9-8.8l-11.8.7-1.4-.1c19.2-1.3 41.4-1.5 59.4 1.3.8.2 1.5.1 2.3.4h.7l-.2.6c.5.3 1.2-.1.9.8z"/><linearGradient id="SVGID_4_" gradientUnits="userSpaceOnUse" x1="-2783.01" y1="745.413" x2="-2994.977" y2="897.765" gradientTransform="scale(-1 1) rotate(-21.963 -2990.34 -6589.168)"><stop offset="0" style="stop-color:#ecdbc9"/><stop offset="1" style="stop-color:#e7b292"/></linearGradient><path d="M287.7 270.6c-6.4-12.3-27.1-24.4-40.5-30.6-9-4.2-16.3-9.9-23.6-15.9-6.8-5.5-13.1-12.9-23.1-14-9-1-19.3.1-27.7-3.1-9.3-3.6-16.3-12.2-24.2-17.5-2.4-1.6-30.2-13.7-28.3-16.1-1.1 1.4-12.3 19.2-14.9 16.6 7.9 7.9 22.1 2.1 29.7 10 3.2 3.3 3.3 7.5 6.1 10.8 2.7 3.2 8.3 5.3 12.2 7.1 8.9 4.2 13.6 10.1 21.3 15.5 4.1 2.8 8.8 5 13.6 6.2 13.3 3.3 27 7 28 21-12.4-2.5-28.3-1.9-41.3-.5-7.2.8-14.4 1.1-20.6 4-6.2 2.9-13 8.1-20 9.5-.7.1-1.5.3-2.2.3-8.1.8-17.5-2.2-25.5-2.6-10.7-.6-21.3 2.4-32 2.3-9.4-.1-18.3-4.3-27.7-4-5.4.2-10.9 1.7-16.2 1.2-10.4-1-20.5-3.7-30.7-5.7v16.7c2.9.4 5.9 1 8.7 1.6 8.1 1 14.5 6.1 22.5 7.1 18.2 2.3 37.5 4 54.5 10.4 7.9 3 14.5.5 23.2.2 14.8-.5 25.7 7.1 36.8 14.1 12.4 7.8 27.7 12.2 42.3 15.9 28.6 7.4 67.6.7 88.3-18.6 9.8-9.2 17.6-29.7 11.3-41.9z" style="fill:url(#SVGID_4_)"/><linearGradient id="SVGID_5_" gradientUnits="userSpaceOnUse" x1="-2804.009" y1="888.235" x2="-2840.514" y2="958.813" gradientTransform="scale(-1 1) rotate(-21.963 -2990.34 -6589.168)"><stop offset="0" style="stop-color:#ecdbc9"/><stop offset="1" style="stop-color:#e7b292"/></linearGradient><path d="M45.6 328.5c-9.1-4.3-20.1-5.9-30.8-5.7-4.3.1-9.7 1.3-14.8 1.8v15.5c.6.3 1.1.6 1.7.8 9.7 4.7 19.5 5.5 30.1 4.8 12.4-.3 33.3-7.8 13.8-17.2z" style="fill:url(#SVGID_5_)"/><linearGradient id="SVGID_6_" gradientUnits="userSpaceOnUse" x1="-2852.806" y1="934.821" x2="-2872.157" y2="994.013" gradientTransform="scale(-1 1) rotate(-21.963 -2990.34 -6589.168)"><stop offset="0" style="stop-color:#ecdbc9"/><stop offset="1" style="stop-color:#e7b292"/></linearGradient><path d="M91.4 384.7c-2.5-8.8-26.4-6.2-33.6-5.4-12.8 1.4-26.7 2.9-39.4.5-6.4-1-12.3-3.1-18.4-5.2v8.6c5.5 2 11 3.9 18.3 3.3 9.5-.6 13.3 2.4 21.8 6.2 10.9 4.5 20.9 3.9 33.1 2.1 5-.6 20.5-2.7 18.2-10.1z" style="fill:url(#SVGID_6_)"/><linearGradient id="SVGID_7_" gradientUnits="userSpaceOnUse" x1="-2903.348" y1="958.94" x2="-2917.636" y2="1014.899" gradientTransform="scale(-1 1) rotate(-21.963 -2990.34 -6589.168)"><stop offset="0" style="stop-color:#ecdbc9"/><stop offset="1" style="stop-color:#e7b292"/></linearGradient><path d="M47.4 413.9c11.3-3.6 22.4 2.8 33 5.5 6.4 1.2 11 1.7 17.1 1 3.9-.4 16.8-4.7 19.2-3.5 7.9 3.9-2.9 14.2-8.5 14.8-8.9 1-16.3-6.8-23.8-7.9-6.3-.7-11 2.2-17.4.9-3.5-.6-7.8-3-11.4-4.5-3.7-2-8.5-3.8-12.6-4.8l4.4-1.5z" style="fill:url(#SVGID_7_)"/><path class="st29" d="M9 356.6c-3-.8-6-1.8-9-2.9v5c4.1.9 8.2 1.7 12.3 2.2 3.5.3 7.1.4 10.7.4 2.9-.1 6-.4 9.2-.9-7.7-1-15.3-1.8-23.2-3.8zM104.8 215.5c11.6 9.1 28.6 9.6 42.1 19 1.7 1.2 3.4 2.4 5 3.6.4.1.8.3 1.2.5-6.3-4.4-10.9-9.9-17.9-13.6-7-4-14.4-8-21.8-11.9-12.6-6.7-29.7-16.7-34.9-29.4 3.3 10.5 14 22.1 26.3 31.8zM500 428.3c-12.3 0-24.7.9-36.9-.1-15.7-1.4-31.6-.4-47.4-2.1-20.3-2.2-40.6-2.2-61-2.9-20.1-1-39.3-1.1-59.2 2-15.8 2.4-31.1 6-46.8 9-16.1 3-33.2 4.6-49.6 5.4-17.9 1-34.9-1.9-52.4-2.9-16-1.1-31 4-46.7 4.5-6.8.1-19.5.5-20-7.7-5.3 3.3-16.3-.7-24.4-3.7 3.9 1.9 7.8 3.9 11.5 5.7 9.7 4.3 19.7 10.9 31 10.9 12 0 24.1-4.9 36-5.5l2.1-.1c34.7 5.3 77.3 3.5 111.3-3.1 24.1-4.6 46.2-11.8 70.6-11.1 27.3.4 57.1 2.1 92.7 4.2 29.6 1.3 59.4 3.1 89.2 5.8v-8.3zM25.2 304.8c-7.2-.5-13.7-2.6-19.9-5.7-1.6-.8-3.4-1.5-5.3-2.1v5c13.8 6.8 35.3 5.9 50.7 8.3 3.8.8 9.5 1.3 14.1 2.5-10.2-8.6-25.8-7.1-39.6-8z"/><path class="st9" d="M114.8 400.7c3.6 4.1 9.5 6.1 15.3 4.2.2-.1.1-.3-.1-.3-5.8 1.3-11.1 0-15.2-3.9zM104 315.2c.2-.1.1-.5-.2-.4-5.6 2.3-11.2 2-16.8 0-.1 0-.2.1-.1.2 5.7 2 11.5 2.8 17.1.2zM83 363.2c5.4 5.7 16.9 6 24.5 4.2.2-.1.1-.4-.1-.3-9 1.2-16.7.3-24.4-3.9 0-.1 0-.1 0 0zM31.9 265.2c7-.6 14.3-.5 21.2 0 3.3.2 6.6.7 9.9 1.3 3.3.6 6.5.7 9.9.8 6.1.1 12.2-.3 18.3-.6 7.4-.4 14.7-.3 22.1.1 6.4.4 12.9.9 19.4.2 5.7-.6 10.7-2.8 15.5-5.3 6-3.1 12.1-5.6 19-6.9 3.4-.6 6.9-.7 10.4-.8 3.9-.1 7.7-.4 11.7-.3.2 0 .2-.2 0-.2-6.3-.5-12.8-.4-19.1-.1-6.9.3-13.3 1.9-19.4 4.7-5.3 2.3-10 5.1-15.8 6.6-7.2 1.8-15.1 1.5-22.5 1.3-6.4-.2-12.9-.1-19.3.2-7 .4-14.1 1-21.1.3-6.6-.7-13-2.5-19.7-2.9-7-.4-13.7.5-20.6 1.4-.2 0-.1.2.1.2z"/><path class="st9" d="M97.6 209.8c6.4 5.8 12.8 10.9 21.3 14.2 8.7 3.4 17.8 5.6 25.7 10.5 8.5 5.3 17.6 10.9 22.9 18.8.2.3.9.1.7-.2-3.5-5.5-8.4-9.9-13.6-14.2-5.4-4.4-10.7-8.3-17.5-11.1-6.3-2.6-12.9-4.4-19.4-6.7-3.2-1.1-6.4-2.2-9.3-3.8-3.6-2.1-6.6-4.5-9.6-7.2-9.7-8.5-20.8-20.4-20.3-32.9.2-5.3 3.5-11.8 8.1-15.5 3.8-3 8.5-3.1 13.2-1.8 6.2 1.7 11.7 5.3 16.9 8.5 7.2 4.5 14.6 8.1 22.6 11.6 4 1.7 8 3.4 11.9 5.2 4.2 1.9 8 4.2 12 6.4 7.6 4.1 15.7 7.4 24.2 10.2.1 0 .1-.1 0-.1-7.5-2.9-14.9-6.2-21.7-10.1-6.5-3.7-12.6-7.7-19.5-10.9-7.3-3.4-14.7-6.5-21.6-10.4-5.3-3-10.2-6.6-15.7-9.5-7.9-4.1-18.1-6.9-25.1-.1-4 3.8-6.2 9.5-6.8 14.5-.6 4.9 1.4 10 3.7 14.5 3.8 7.6 10.2 14.1 16.9 20.1zM239.9 223.3c4 1.6 7.7 4.2 11.1 6.4 3.8 2.4 7.4 5 10.9 7.7 6.3 4.7 12.7 9.4 19 14.1 6.4 4.8 12.6 9.9 18.4 15.3 5.6 5.2 11.1 10.7 14.5 17.1.2.4 1 .2.8-.3-5.8-13.6-19-24.1-31.5-33.5-6.5-4.9-13.1-9.7-19.6-14.5-3.6-2.6-7.2-5.2-11.1-7.5-3.9-2.3-8-3.7-12.4-5.2-.2-.1-.3.3-.1.4zM215.4 207.6c4.3 1.4 8.1 4.3 11.4 6.9 3.3 2.5 6.9 5 10.5 7.1.2.1.6-.1.3-.3-6.1-5.5-11.6-11.4-19.7-14.9-8.6-3.6-19.3-1.5-28.5-3.7-.1 0-.1.1 0 .1 8.5 2.4 17.6 2.2 26 4.8zM316 285.2c3.2 1.3 6.2 2.6 9.7 3.5 3.5 1 7.2 1.6 10.8 2.1 7.4 1 15 1.1 22.5 1.1 17 0 34-.7 50.9-.8 30-.3 60-.1 90-.3v-1.6c-5.4 0-10.7 0-16.1-.1-35.6-.2-71.2-.5-106.7.2-10.4.2-20.7.7-31.1.2-4.9-.2-9.8-.7-14.6-1.4-5-.7-10.6-1.5-15.3-3.2-.2-.2-.3.2-.1.3zM56 310.5c-6.3-1.1-12.5-2-19-2.5-7.1-.6-14.3-1.1-21.3-2.3-5.6-.9-10.6-2.7-15.7-4.5v1.5c3.6 1.8 7.3 3.2 11.5 4.1 6.9 1.5 14.1 2.1 21.1 2.7 6.3.5 12.8.8 19.1 1.9 5.9 1.1 14.4.5 19 4.4h.1c-3.8-3.5-9.6-4.5-14.8-5.3z"/><path class="st9" d="M136.9 202c5.6-2.1 11.2-5.4 13.2-10.5.1-.2-.2-.3-.3-.1-2.5 4.9-7.4 8.2-13 10.5-.1 0 0 .1.1.1zM82.8 180.4c1.3.7 2.5 1.4 3.8 2 1.8.9 3.8 1.6 5.8 2.1 3.9.9 8.1 1.1 12-.1 4.4-1.4 7.5-4.4 9.5-7.9.5-.9 1-1.9 1.1-2.9.1-.8 0-1.6-.4-2.3-.7-1.8-2.4-3.2-4.1-4.3-2.1-1.5-4.5-2.7-7-3.8-1.3-.6-2.6-1.1-3.9-1.7-.6-.2-1.2-.5-1.9-.7-.4-.2-1.1-.6-1.6-.5-4.8 1.1-9 3.9-11.5 7.6-2.5 3.7-3.2 8.2-1.8 12.5-.1-.1-.1-.1 0 0-.1 0-.1 0 0 0-.1 0 0 0 0 0zm2.5-12.8c1.3-1.8 3.1-3.4 5.2-4.7 1.1-.6 2.2-1.2 3.4-1.6l1.8-.6c.3-.1.6-.2.9-.1.3.1.7.3 1.1.4 2.6 1 5.2 2.1 7.8 3.4 2.4 1.2 4.7 2.5 6.6 4.1 1.5 1.3 2.7 3 2.6 4.9-.1 1.1-.6 2.1-1.1 3-.6 1-1.2 2-2 3-2.6 3.1-6.6 5.1-11.1 5.6-4.2.4-8.5-.5-12.3-2.1-1.8-.7-3.4-1.7-5.1-2.6-1.5-4.4-.6-9 2.2-12.7zM128.5 205.9c4.9-6.6 14.2-11.6 16.3-19.5.1-.3-.4-.4-.5-.1-2.1 3.9-4.4 7.1-7.7 10.3-3 2.9-6.1 5.8-8.4 9.1-.1.1.2.3.3.2zM138.9 185.6c.1-.1 0-.3-.1-.2-5.3 1.7-8.8 6.6-10.8 10.8 0 0 .1.1.1 0 2.4-4.6 5.9-7.9 10.8-10.6zM2 284.7c-1.9 3.1-2.4 6.4-1.5 9.8 0 .1.1 0 .1 0-.7-3.4 0-6.5 1.6-9.7.1-.2-.1-.2-.2-.1zM33.5 397c.6-3.3 1-6.9-.9-9.8 0-.1-.2 0-.1 0 1.7 3.2.6 6.5.6 9.8-.1.2.4.2.4 0z"/><path class="st9" d="M134.1 440.8c-12.3.2-23.9 4.2-36.1 4.8-11.3.6-20.6-5.7-30-10-5.3-2.4-10.3-5.2-15.5-7.7-5-2.4-9.8-5.4-15.2-7.1-1.3-.4-2.6-.7-3.7-1.4-1.7-1-2.2-3.4-2.5-4.9-.7-3.6.3-7.7 3.5-10.3 1.6.3 3.2.5 4.9.7 5.4.4 10.9-.9 16.2-1.2 2.7-.2 5.5-.3 8.2-.4 2.9.7 5.7 1.5 8.5 2.6 2.9 1.1 8.8 3.5 10.1 6.3.1.3.6.6 1 .5 5.3-.8 10.8-1 16.1-1.6 4.7-.6 8.9-1.8 13.2-3.4.5-.2.7-.6.7-1.1 0-.6-.1-.9-.7-1.3-.3-.2-.9-.3-1.3 0 0-.1-.1-.3-.3-.3-22.3-5.4-45.9-1.5-68.6-1.8-12.2-.1-22.9-4.8-33.7-9C6 393 3 391.9.1 390.7v.8c2.2 1 4.4 1.9 6.7 2.9 8.8 3.7 17.6 8 27.2 9.9-4.8 3.8-5.1 11.7-1.1 16 .7.8 1 1.7 2.3 2.2 2.7 1.1 5.4 1.8 8.2 2.6 6.5 1.8 12.6 5.6 18.5 8.5 10.2 5 20.5 10.9 32 13.5 6.1 1.3 12.9.3 18.9-1.1 7.2-1.6 14.2-3.8 21.6-4.6 0-.3-.1-.6-.3-.6zm-58.9-37.6c6.2 0 12.4.5 18.6 1.1l8.4.9c2.8.3 5.7.2 8.5.6-.1.3.1.6.4.7.2.2.2.2 0 0-.5.6-1 .8-1.8 1.1-2 .8-4.1 1.2-6.2 1.5-4.4.7-9 .9-13.5 1.3-1.9.1-3.9.3-5.8.5-.9.1-2.7-1.4-3.4-1.9-1-.6-2-1.1-3-1.6-4.1-2-8.4-3.2-12.9-4.1 3.5-.1 7.1-.1 10.7-.1z"/><path class="st9" d="M25.8 383.4c-.1 5.5.3 11.4 3.8 16.2 0 0 .1 0 0 0-3.3-4.9-3.2-10.7-3.5-16.2 0-.2-.3-.2-.3 0zM22.1 388.9c-.9 2.5 0 5.1 1.6 7.2h.1c-1.4-2.2-1.9-4.6-1.4-7.1 0-.2-.2-.3-.3-.1zM81.1 436.6c-.1 2 0 4.6 2 5.9.1.1.2 0 .2-.1-1.5-1.8-2-3.6-2.1-5.8 0-.1-.1-.1-.1 0zM500 435.4c-18.8-1.8-37.8-3.1-56.7-4-18-.9-36-1.5-54-2.2-16.1-.7-32.3-1.4-48.4-2-15.7-.6-31.4-1.5-47 .6-17.2 2.2-33.8 6.9-50.9 10-15.5 2.8-31.3 4.4-47.1 5.1-16.3.8-32.6.7-48.9-.9-3.6-.3-7.3-.7-10.8-1.2-.1 0-.1.2 0 .2 31.1 5 63.2 4.6 94.4.4 16.7-2.3 32.9-6.2 49.1-9.8 8.5-1.9 17-3.4 25.7-4.3 8.2-.8 16.5-.4 24.7-.4 15.6.1 31.2 1.2 46.8 2.2 17.7 1.1 35.4 2.5 53.1 3.6 23.4 1.5 46.7 3.1 70 5.1v-2.4zM43.4 419.9l-.4.4c-.1.1-.3 0-.5 0-.7-.2-1.5-.4-2.2-.5-2.3-.5-4.7-.9-7-1.4-.2 0-.2.2 0 .2 3.2.7 6.5 1.1 9.6 2h.2c1.3-1.3 2.5-2.9 2.6-4.7.1-1.3-.5-2.4-1.6-3.3-2.6-2.2-6.9-2.7-10.4-2.6 0 0-.1 0-.1.1-1.2 2.7-1.4 5.5-.2 8.2.1.2.3.1.3-.1-.6-1.4-.9-2.8-.8-4.2 0-.6.1-1.3.3-1.9.1-.4.2-.7.4-1.1.1-.2.1-.3.2-.5.1-.3.2-.2.5-.3 2.6 0 5.4.4 7.7 1.4 2 .9 3.5 2.3 3.4 4.3-.1 1.1-.7 2.2-1.4 3.2-.1.3-.3.6-.6.8zM30.9 265c-4.8-1.9-10.4-2.8-15.6-3.6-5.1-.8-10.2-1.3-15.3-1.8v.8c4.8.4 9.6.9 14.3 1.6 5.4.8 11.2 1.5 16.3 3.4.4.2.7-.3.3-.4zM15.6 297.1c3.5-5.7 5.2-11.4 3.2-17.7 0-.1-.3-.1-.2 0 1.8 6.3-.1 11.9-3.5 17.5-.2.3.3.5.5.2zM69.9 315.7c-2.6 4.1-8.8 4.3-13.7 4.1-5.4-.2-10.8-1.1-16.1-1.8-6.3-.9-12.8-1.2-19.2-1.5-6.9-.4-14.1-.4-21 .4v.7c14.5-.3 29 1 43.4 2.6 5.7.6 11.5 1 17.2.3 3.7-.4 8.4-1.3 9.8-4.7.2-.2-.2-.3-.4-.1zM80.2 370.1c-13.1-8.1-28.8-9.2-44.6-9.1-4.1 0-8.2.1-12.4 0-1.9 0-3.9 0-5.8-.2-2.2-.1-4.3-.8-6.5-1.1-3.7-.5-7.3-1.1-10.9-1.9v2.6c1.9.4 3.8.7 5.6.9 1.4.2 2.8.3 4.2.3 9.1 3.4 19.7 4.7 29.5 4.6 5.8 0 11.7-.1 17.5 0 2.9 0 5.8 0 8.7.2 3.2.3 6.4 1.1 9.6 1.5.2 0 .3-.1.3-.2 1.6.9 3.2 1.6 4.8 2.4 0 .1 0 0 0 0zM59 364.7c-5.3-.6-10.9-.3-16.3-.2-5.8.1-11.7.5-17.5.1-5-.3-10-1.4-14.7-3 2.5 0 5-.1 7.6-.1 3.9 0 7.8.1 11.8.1 14.6-.1 29 .1 42.2 4.9-4.2-1-8.9-1.3-13.1-1.8zM10.1 280.3c-3.5 4.8-4.6 11.1-3.3 16.6 0 .2.5.2.5-.1-.3-5.3 0-11.4 2.8-16.5.1 0 0 0 0 0zM2.4 351.7c2.4-5.7 2.5-12.4-2.1-17.4H.2c4.3 5.3 3.6 11.4 1.7 17.3.1.2.5.3.5.1z"/><path class="st11" d="M361.2 298.5c-1.1 19.1 1.1 116.8 18.8 130.6-10.7-.4-21.1-1.2-21.1-1.2L344 380.2s-.8-49.1-.8-49.2c.1-.1 18-32.5 18-32.5z"/><g><path d="M368.1 436.3c-4.9.2-8.9-36-8.9-80.7-.1-44.7 3.7-81.3 8.6-81.5v-1.3c-.6 0-1.3.6-1.8 1.8-.1.1-.1.3-.2.5s-.2.4-.2.6c-3.8 9.8-6.7 42-6.5 79.8.1 44.3 4 80.2 8.8 82 .1 0 .2.1.4 0v.1l-.2-1.3z"/><linearGradient id="SVGID_8_" gradientUnits="userSpaceOnUse" x1="410.111" y1="-709.43" x2="410.111" y2="-556.985" gradientTransform="matrix(.8897 .0685 .0853 -1.1074 31.505 -373.59)"><stop offset="0" style="stop-color:#b0b0b0"/><stop offset="1" style="stop-color:#fff"/></linearGradient><path d="M368 437.5h-.4l-46 1.5c-5 .2-9-36.5-9.2-82.1-.1-45.6 3.9-82.6 8.8-82.8l3.2-.1 41.4-1.2 1.8-.1c-.6 0-1.3.7-1.9 1.9-.1.1-.1.3-.2.5s-.2.4-.2.6c-2 5.2-3.7 16.7-4.8 32-1 13.4-1.6 30-1.5 47.8.1 17.8.6 34.3 1.8 47.6 1.5 20.8 4.2 34.3 7.2 34.4z" style="fill:url(#SVGID_8_)"/></g><g><path transform="rotate(-1.356 336.542 344.777) scale(.99998)" class="st31" d="M320.2 343.7h32.6v2.3h-32.6z"/><path transform="rotate(-1.356 336.624 348.246) scale(.99998)" class="st31" d="M320.3 347.8h32.6v.8h-32.6z"/><path transform="rotate(-1.356 336.704 351.787) scale(.99998)" class="st31" d="M320.4 350.2H353v3.3h-32.6z"/><path transform="rotate(-1.356 336.797 355.67) scale(.99998)" class="st31" d="M320.5 354.5h32.6v2.3h-32.6z"/><path transform="rotate(-1.356 336.899 359.97) scale(.99998)" class="st31" d="M320.6 358.8h32.6v2.3h-32.6z"/><path transform="rotate(-1.356 337.386 380.161) scale(.99998)" class="st31" d="M321.1 379h32.6v2.3h-32.6z"/><path transform="matrix(.9997 -.0237 .0237 .9997 -8.834 8.1)" class="st31" d="M321 376.3h32.6v.8H321z"/><path transform="rotate(-1.356 337.224 373.155) scale(.99998)" class="st31" d="M320.9 371.5h32.6v3.3h-32.6z"/><path transform="rotate(-1.356 337.13 369.268) scale(.99998)" class="st31" d="M320.8 368.1h32.6v2.3h-32.6z"/><path transform="rotate(-1.356 337.03 364.968) scale(.99998)" class="st31" d="M320.7 363.8h32.6v2.3h-32.6z"/><path transform="rotate(-1.356 337.49 384.85) scale(.99998)" class="st31" d="M321.2 383.5h32.6v2.7h-32.6z"/><path transform="rotate(-1.356 337.585 388.986) scale(.99998)" class="st31" d="M321.3 388.5h32.6v1h-32.6z"/><path transform="rotate(-1.356 337.687 393.202) scale(.99998)" class="st31" d="M321.4 391.3H354v3.9h-32.6z"/><path transform="rotate(-1.356 337.786 397.317) scale(.99998)" class="st31" d="M321.5 396.5h32.6v1.8h-32.6z"/><text transform="matrix(.0727 -1.0066 1 0 327.3 339.291)" class="st32 st33">Lorem ipsum  </text><text transform="matrix(.0727 -1.0066 1 0 336.916 339.291)" class="st32 st33">dolor sit amet,  </text><text transform="matrix(.0727 -1.0066 1 0 346.533 339.291)" class="st32 st33">consectetuer </text></g><g><path class="st24" d="M178.7 241.4c-.1.9-.4 1.7-.8 2.5-.5 1-1.1 1.9-1.7 2.8-.9 1.3-1.8 2.6-2.7 3.8-.7.9-1.4 1.9-2.2 2.7h-1.1c-.8 0-1.7.1-2.5.2-.1 0-.1 0-.2-.1l-.1-.1c-.6-.9-1.2-1.7-1.9-2.5-.5-.6-1-1.1-1.5-1.7 0-.1 0-.2.1-.3 0-.1 0-.2.1-.3v-.2c0-.1 0-.2.1-.4.2-1.2.1-2.4 0-3.7-.1-.8-.2-1.6-.5-2.4 0 0 0-.1-.1-.1 0-.1-.1-.2-.2-.3 0 0 0-.1-.1-.1-.8-1.2-2.3-1.9-3.6-2.6-1.8-1.1-3.3-2.5-4.5-4.2-.3-.4-.9-.8-1.3-1.2-.1-.1-.3-.3-.3-.4-.4-.8.4-1.6 1-2.1.4-.4.9-.8 1.4-1.2 2.3-2 4.9-3.7 7.6-5.2 2.8-1.6 5.8-2.9 8.7-4.3.2-.1.5-.2.8-.2.5.1.8.8.8 1.3.1 1.7-.7 3.5 0 5 .6 1.2 2.1 1.9 2.5 3.2.2.5.1 1.1.2 1.6.1 1.3.5 2.6.9 3.9.6 2.4 1.4 4.4 1.1 6.6z"/><path class="st5" d="M177.4 240.6c-.1.9-.3 1.7-.7 2.5-.2.6-.5 1.1-.7 1.6-1.2 2.4-2.5 4.9-4.4 6.8-.7.7-1.5 1.4-2.5 1.7-.3.1-.7.1-1 .1h-.5l-.1-.1c-.6-.9-1.2-1.7-1.9-2.5 0-.2 0-.4.1-.6 0-.2.1-.3.1-.5s.1-.3.1-.5c.4-1.1 1.1-2.1 1.4-3.3.4-1.5.1-3.1-.4-4.6-1-2.9-2.9-5.4-4.9-7.7-.7-.7-1.4-1.5-2.3-1.9-.5-.2-2.7-.1-2.9-.5-.1-.2.1-.6.5-.9.7-.6 1.7-1.2 2-1.4 1.8-1.3 3.6-2.4 5.5-3.5.6-.3 1.2-.7 1.9-1 .4-.2.9-.4 1.3-.1.1.1.2.3.3.4.4 1.1 0 2.1-.4 3.2-.2.6-.4 1.2-.5 1.9 0 .4 0 .7.2 1 .3.6 1.1.7 1.7.7.6-.1 1.3-.3 1.9-.4h.7c1.1.1 2.2.8 3 1.6.3.3.5.7.7 1 .5.8.8 1.7 1.1 2.7.5 1.5.8 2.9.7 4.3z"/><path d="M164.6 233.7c-.1.7-.1 1.4.1 2 .2.5.6 1 1 1.4 1.7 1.7 3.4 3.5 4.1 5.8.3.8.6 1.8 1.5 1.8.5 0 .9-.4 1.2-.7 1.3-1.5 2.2-3.2 2.8-5.1.1-.3.2-.6.1-.9 0-.4-.3-.8-.6-1.1-.9-1-2.3-1.5-3.6-1.5-.7 0-1.5.2-2.2-.1-.6-.3-1-.9-1.3-1.4-.4-.7-1.1-2.8-2-2.8-.9.1-1 1.9-1.1 2.6z" style="fill:#8b5c45"/><path class="st9" d="M156.3 241.7c.3.2.6.4 1 .6.3.2.5.5.8.7 2.2 2 4.3 4 6.5 6 .2.2.4.3.6.2.1 0 .1-.1.2-.2.3-.6.4-1.2.4-1.9 0-1.7-.8-3.4-1.7-4.9-1.2-2-2.6-3.9-4.3-5.4-.5-.4-1.1-.8-1.6-1.2l-2.1-1.5c-.3-.2-.6-.4-.9-.5-.7-.3-1.6-.2-2.3.2-.4.3-.7.7-1 1.1-.2.3-.4.6-.6.8-.1.1-.2.3-.3.5-.1.5.6 1.1.9 1.5.4.5.9 1 1.4 1.5.8 1 1.8 1.8 3 2.5z"/><path class="st9" d="M161.8 243.1c-.1.3-.1.6-.1.8.2 1.9 1.2 3.6 2.3 5.1 1.1 1.5 2.5 2.9 3.4 4.5.2.3.5.7.8.5.1 0 .1-.1.2-.2.6-.7.6-1.7.3-2.5s-.8-1.6-1.2-2.3c-.7-1.3-1.2-2.7-1.9-4-.3-.6-.7-1.1-1.1-1.7-.3-.4-.5-1.1-.9-1.4-1-.5-1.6.3-1.8 1.2z"/></g></g><g><path class="st11" d="M2.3 221.2 0 223.8v4.4c6.1.3 18.5 4.9 36.3 30.4-11.8-24.6-34-37.4-34-37.4z"/><path class="st1" d="M185.3 209c-1.1 1.4-2.4 2.8-3.9 4.2-1.4 1.4-3 2.7-4.7 4.1-.9.7-1.9 1.5-2.9 2.2-1.6 1.2-3.3 2.4-5.1 3.6-.4.3-.8.5-1.2.8-1.5 1-3.1 2-4.7 3.1-3.2 2-5.5 3.8-7.3 5.2-.4.3-.7.6-1 .9-1.9 1.7-2.9 3-3.4 3.9-1.1 2.3.4 2.9.4 2.9-.2 2.1-1.8 4.4-4.2 6.2-2.5.9-5 1.7-7.6 2.4-7.2 2-14.7 2.6-22.1 2.3-4.4-2-8-3.3-10.6-4.2-3.1-1.1-4.8-1.5-5.2-1.9l-.7-.6c-.4-1.2-1-2.6-1.6-4.1-.4-1-.9-2-1.4-3.1-.5-1.2-1.1-2.4-1.8-3.7-7.3-15.1-20.8-37.7-33.3-47.8.3-.2.6-.5.8-.7.5-.4.9-.7.9-.7 4.4-2.9 14.8-11.7 23.4-18.2 2.8-2.1 5.4-3.9 7.5-5.3 5.1-3.2 14.1-9.2 22.6-10.2 5.8-.7 11.3.9 15.2 7.3 5.5-3.3 21.1-3.8 23.7 9.5 6.4.5 16.1 8.4 14.5 18.1 5.6-1 15.8-.6 17.7 10.4.9 4.8-.7 9.1-4 13.4z"/><path d="M185.3 209c-1.1 1.4-2.4 2.8-3.9 4.2-1.4 1.4-3 2.7-4.7 4.1-.9.7-1.9 1.5-2.9 2.2-1.6 1.2-3.3 2.4-5.1 3.6-.4.3-.8.5-1.2.8-1.5 1-3.1 2-4.7 3.1-3.2 2-5.5 3.8-7.3 5.2-.3.4-.5.8-.8 1.1-.1.1-.2.3-.3.4-.7 1-1.4 2.1-2.5 2.8-.3.2-.5.3-.8.4-1.1 2.3.4 2.9.4 2.9-.2 2.1-1.8 4.4-4.2 6.2-2.5.9-5 1.7-7.6 2.4-7.2 2-14.7 2.6-22.1 2.3-4.4-2-8-3.3-10.6-4.2-3.1-1.1-4.8-1.5-5.2-1.9l-.7-.6c-.4-1.2-1-2.6-1.6-4.1-.4-1-.9-2-1.4-3.1-.5-1.2-1.1-2.4-1.8-3.7C89 218 75.5 195.4 63 185.3c.3-.2.6-.5.8-.7.5-.4.9-.7.9-.7 4.4-2.9 14.8-11.7 23.4-18.2 2.8-2.1 5.4-3.9 7.5-5.3 5.1-3.2 14.1-9.2 22.6-10.2 0 1.4-.3 2.4.3 3.9.5 1.5 1.4 2.8 2.5 4 2.2 2.4 4.9 4.4 6.3 7.3 1.4 2.8 1.3 6.1 2.8 8.8 1.8 3.3 5.7 5.3 6.9 8.9.7 1.9.5 4.1 1 6 .6 2.3 2.2 4.2 3.7 6.1 2.4 3 4.9 5.9 7.3 8.9 1.3 1.6 2.7 3.2 4.6 4 5.6 2.2 12-4.5 17.5-2.2 2.7 1.1 4.5 4.1 7.4 4.4 2.4.4 4.5-1.2 6.8-1.3z" style="opacity:.5;fill:#f1c1a2;enable-background:new"/><path class="st4" d="M181.4 213.2c-1.4 1.4-3 2.7-4.7 4.1-.9.7-1.9 1.5-2.9 2.2-1.6 1.2-3.3 2.4-5.1 3.6-.4.3-.8.5-1.2.8-2.2.5-4.4 1.1-6.3 2.3-2.3 1.5-4.1 3.7-5.7 6-.3.4-.5.8-.8 1.1-.1.1-.2.3-.3.4-.7 1-1.4 2.1-2.5 2.8-.3.2-.5.3-.8.4-2.1 1-4.8.5-7.2.3-.7-.1-1.3-.1-2-.1-2.5-.1-4.9.1-7.3.4-3.6.4-7.1 1.2-10.6 1.9-2 .4-4.1.8-6.1 1.2-3.6.6-7.6.8-10.9-.6-.9-.4-1.7-.9-2.4-1.5-.4-.3-.7-.7-1.1-1.1-.7-.8-1.2-1.6-1.8-2.5-.1-.1-.1-.2-.2-.3-4.4-6.7-8.8-13.5-13.2-20.2 3.3 2.1 6.5 4.2 9.8 6.4.2.1.3.2.5.3 2.3 1.5 5.7 2.9 7.6.8 1.4-1.6.6-4.1-.2-6.1-5.6-12.8-13.3-25.5-25.6-32.1 0 5.2 5.6 9.6 4.3 14.6-4.1-2.7-8.2-5.5-12.3-8.2-2.7-1.8-6-3.3-8.6-5.4.5-.4.9-.7.9-.7 4.4-2.9 14.8-11.7 23.4-18.2 4.7-1.2 9.3-2.7 13.1-5.7 2.1-1.7 4.3-3.9 7-3.7-1.1 3.6-5.7 5.8-5.8 9.6 0 1.9 1.1 3.8.5 5.6-.5 1.6-2.2 2.4-3.7 2.9-1.6.5-3.3.8-4.5 2-1.2 1.1-1.5 3.4-.2 4.3 1.2.8 2.8.1 4.1-.5 6.6-2.9 14.2-2.5 21.4-2 1.7.1 3.9.7 4 2.4 0 .5-.2 1-.4 1.5-1.1 2-3.2 3.4-3.5 5.7-.4 3 2.7 5.1 5.1 6.8 6.9 5.1 11.2 12.9 16.3 19.7.9 1.3 2 2.5 3.4 3.1 1.2.5 2.5.5 3.8.3 4.5-.5 8.7-2.5 11.9-5.7.7-.7 1.4-1.4 2.3-1.8 1.5-.6 3.1.1 4.5.6 4.6 1.8 9.3 2.5 14 2.3z"/><path class="st6" d="M176.7 217.3c-.9.7-1.9 1.5-2.9 2.2-1.6 1.2-3.3 2.4-5.1 3.6-.4.3-.8.5-1.2.8-1.5 1-3.1 2-4.7 3.1-3.2 2-5.5 3.8-7.3 5.2-.4.3-.7.6-1 .9-1.9 1.7-2.9 3-3.4 3.9-1.1 2.3.4 2.9.4 2.9-.2 2.1-1.8 4.4-4.2 6.2-2.5.9-5 1.7-7.6 2.4-7.2 2-14.7 2.6-22.1 2.3-4.4-2-8-3.3-10.6-4.2-3.1-1.1-4.8-1.5-5.2-1.9l-.7-.6c-.4-1.2-1-2.6-1.6-4.1-.4-1-.9-2-1.4-3.1-.5-1.2-1.1-2.4-1.8-3.7 1.7.6 3.4 1.5 5.2 1.4.1 0 .3 0 .4-.1 2-.4 3.4-2.2 4.8-3.7s3.5-2.9 5.4-2.1c.6.3 1.1.7 1.7 1.1 1.1.7 2.4.9 3.7.7.4-.1.9-.2 1.2-.6.2-.3.3-.8.3-1.2.2-2.6-.1-5.2 0-7.8.1-2.6.8-5.3 2.5-7.3.8-.9 1.8-1.6 2.9-1.8 1.5-.3 3.1.4 4.5 1.1 3.7 1.9 7.2 4.2 10.3 6.9 1.1.9 2.1 1.9 3.4 2.4 1.5.6 3.2.6 4.8.6 3 0 6.1-.1 8.8-1.5 2.1-1.1 3.7-2.9 5.9-3.7 1.7-.6 3.5-.7 5.2-.7 3.1.1 6.2.2 9.4.4-.1 0-.1 0 0 0z"/><path class="st3" d="M173.8 219.5c-1.6 1.2-3.3 2.4-5.1 3.6-.4.3-.8.5-1.2.8-1.5 1-3.1 2-4.7 3.1-3.2 2-5.5 3.8-7.3 5.2-.4.3-.7.6-1 .9-1.9 1.7-2.9 3-3.4 3.9-1.1 2.3.4 2.9.4 2.9-.2 2.1-1.8 4.4-4.2 6.2-2.5.9-5 1.7-7.6 2.4-7.2 2-14.7 2.6-22.1 2.3-4.4-2-8-3.3-10.6-4.2-3.1-1.1-4.8-1.5-5.2-1.9l-.7-.6c-.4-1.2-1-2.6-1.6-4.1-.4-1-.9-2-1.4-3.1 2.7-.5 6.1 1.4 8.5-.2 1.5-1 2.1-3.1 3.9-3.4.9-.2 1.8.2 2.6.7 2.7 1.4 5.6 3.2 8.5 2.3 2.1-.7 3.5-2.9 4-5 .6-2.2.5-4.4.7-6.7.1-1.3.3-2.6 1.1-3.7 1.2-1.5 3.3-1.9 5.1-1.6 1.9.3 3.5 1.3 5.2 2.2 4.7 2.6 10 5.1 15.3 4.2 6.5-1.1 11.7-6.9 18.2-6.9.9-.1 1.9.1 2.6.7z"/><path class="st5" d="M168.7 223.1c-.4.3-.8.5-1.2.8-1.5 1-3.1 2-4.7 3.1-3.2 2-5.5 3.8-7.3 5.2-.4.3-.7.6-1 .9-1.9 1.7-2.9 3-3.4 3.9-1.1 2.3.4 2.9.4 2.9-.2 2.1-1.8 4.4-4.2 6.2-2.5.9-5 1.7-7.6 2.4-7.2 2-14.7 2.6-22.1 2.3-4.4-2-8-3.3-10.6-4.2-3.1-1.1-4.8-1.5-5.2-1.9l-.7-.6c-.4-1.2-1-2.6-1.6-4.1.3-.2.6-.3 1-.3.5.1 1 .5 1.4.8 1.5.9 3.6.5 5-.5 4.3-3.1 14.5-1.1 18.4-.3 1.1.2 2.4.7 2.7 1.8.2.5.1 1.1 0 1.6 0 2.4 2 4.6 4.4 4.8 2.4.2 4.7-1.8 5-4.1.3-2.5-1.3-4.7-3-6.5-1.7-1.8-3.7-3.5-4.5-5.8-.8-2.4.5-5.5 3-5.7 2.5-.2 4.1 2.7 6.5 3.5 1 .3 2 .3 3 .2 2.2-.1 4.3-.2 6.5-.4 2.4-.2 4.9-.5 7.1-1.5 2.3-1 4.3-2.6 6.5-3.7 1.9-1 4.2-1.5 6.2-.8z"/><path class="st10" d="M154.5 233.1c-1.9 1.7-2.9 3-3.4 3.9-1.1 2.3.4 2.9.4 2.9-.2 2.1-1.8 4.4-4.2 6.2-2.5.9-5 1.7-7.6 2.4-7.2 2-14.7 2.6-22.1 2.3-4.4-2-8-3.3-10.6-4.2.3-1.3 1-2.6 2.1-3.3.8-.5 1.7-.7 2.7-.8 3-.5 6.2-.6 8.9.9 2.2 1.2 3.8 3.5 6 4.8 2.6 1.6 6 1.8 8.9.6 2.9-1.2 5.1-3.6 6.4-6.4.4-.8.6-1.7.6-2.7 0-1.3-.7-2.6-.8-3.9 0-.2 0-.5.1-.7.1-.2.3-.2.6-.3 1.3-.3 2.8.1 4.1-.3 2.1-.6 3.6-3 5.8-2.8.8.2 1.5.7 2.1 1.4z"/><path class="st4" d="M131 161.4c-.2.2-.3.4-.3.7 0 .3.4.5.7.6.4.1.7.2 1.1.1.3-.1.6-.3.8-.5.6-.4 1.2-.9 1.4-1.6.4-.9-.2-2.6-1.5-2.1-.4.2-.6.7-.8 1-.4.7-.9 1.2-1.4 1.8zM155.2 168.7c-.7-.2-1.6 0-2.2.4-.7.5-1.2 1.3-1.8 2-1.2 1.1-2.3 2.4-3 3.9-.1.2-.2.4-.2.6 0 .5.4 1 1 1.1.5.1 1.1-.1 1.5-.5.4-.3.8-.7 1.1-1.1 1.3-1.2 3-2 4.1-3.3.3-.4.6-.8.7-1.3.1-.8-.5-1.5-1.2-1.8z"/><path d="M163.7 190.7c-1.6 1.3-3.3 2.9-3.4 4.9 0 .4 0 .7.2 1.1.2.3.5.6.9.5.2 0 .4-.1.5-.2 1.8-1.1 3.6-2.3 5.2-3.7.8-.7 1.6-1.4 2.6-1.6.6-.1 1.3 0 1.9-.2 1.3-.3 2.1-1.4 2.9-2.5.2-.3.4-.7.2-1-.4-.7-2.4-.5-3.1-.6-.7-.1-1.5-.3-2.2-.2-2.2.4-4.1 2.2-5.7 3.5z" style="opacity:.7;fill:#daaa8b;enable-background:new"/><path class="st4" d="M165.1 191.2c-.9.8-1.7 1.6-2.6 2.4-.3.3-.7.6-.8 1-.1.4.1 1 .5 1.1.3.1.7-.1.9-.3 1.6-1.3 2.9-3.1 4.7-4 .8-.4 5.5-2 2.5-2.8-1.7-.6-3.9 1.4-5.2 2.6z"/><path class="st9" d="M63.1 185.5c5.3-4.6 10.7-9 16.3-13.3 5.5-4.3 11.2-8.5 17-12.4 2.9-1.9 5.9-3.8 9-5.6 1.5-.9 3.1-1.7 4.8-2.4 1.7-.7 3.4-1.3 5.1-1.6 1.8-.4 3.6-.6 5.4-.6 1.8 0 3.6.3 5.3 1 1.7.6 3.3 1.6 4.5 2.9 1.3 1.3 2.3 2.8 3 4.3-.9-1.5-2.1-2.8-3.4-3.9-1.3-1.1-2.9-1.9-4.5-2.4s-3.3-.7-5-.6c-1.7.1-3.4.4-5 .8l-1.2.4c-.4.1-.8.3-1.2.4-.4.1-.8.3-1.2.5-.4.2-.8.3-1.2.5-1.5.7-3.1 1.5-4.6 2.4-3 1.7-5.9 3.6-8.8 5.6-2.9 1.9-5.8 3.9-8.6 5.9-2.9 2-5.7 4-8.6 6.1-5.7 3.9-11.4 8-17.1 12zM157.2 167.2c-1-2.2-2.2-4.2-3.8-5.9-1.6-1.6-3.5-2.9-5.6-3.6-2.1-.7-4.4-1-6.7-1h-1.8l-1.8.2c-.3 0-.6 0-.9.1-.3 0-.6.1-.9.1-.6.1-1.2.2-1.8.2.5-.3 1.1-.5 1.7-.7.6-.2 1.1-.4 1.7-.6l1.8-.5 1.8-.3c2.4-.3 5-.2 7.4.6.6.2 1.2.4 1.8.8l.8.4c.3.2.5.4.8.5.3.2.5.4.8.6l.7.7c.5.4.9.9 1.3 1.4 1.6 2.2 2.4 4.6 2.7 7zM157.8 167.2c2.1.1 4.2.9 6 1.9 1.8 1.1 3.5 2.5 4.9 4.1 1.4 1.7 2.5 3.6 3.2 5.7.7 2.1 1 4.3.8 6.5l-1-1c2.7-.4 5.6-.4 8.3.3 2.7.6 5.4 2 7.3 4.2.9 1.1 1.6 2.4 2.1 3.7.5 1.3.7 2.7.7 4.1 0 2.8-.8 5.4-1.9 7.9.7-2.6 1.2-5.2.9-7.8-.2-2.6-1.2-5-2.9-6.8-1.7-1.8-4.1-2.9-6.5-3.5-1.2-.3-2.5-.4-3.8-.4-1.3 0-2.6 0-3.9.2l-1.1.1.1-1.1c.2-2 0-3.9-.6-5.8s-1.5-3.7-2.6-5.3c-1.2-1.6-2.6-3.1-4.3-4.3-1.8-1.3-3.7-2.2-5.7-2.7zM117.7 250.9c3.1-.2 6.2-.3 9.3-.7 3.1-.3 6.2-.7 9.2-1.4 3-.7 6-1.6 8.6-3 2.6-1.4 4.9-3.5 5.9-6.2l.1.8c-.3-.5-.7-1.1-.8-1.8-.1-.7 0-1.4.2-2 .5-1.2 1.2-2.1 2-2.9 1.6-1.6 3.4-2.8 5.2-3.9 3.5-2.3 7.1-4.5 10.6-6.9 3.5-2.3 6.9-4.7 10.2-7.3 1.6-1.3 3.2-2.7 4.7-4.1 1.5-1.5 2.9-3 3.9-4.9-.4 1-1 1.9-1.5 2.8-.6.9-1.3 1.7-2 2.5-1.4 1.6-2.9 3.1-4.5 4.5-3.2 2.8-6.6 5.4-10 7.8-3.5 2.4-7 4.8-10.5 7.1-1.7 1.2-3.5 2.3-4.9 3.7-.7.7-1.3 1.5-1.6 2.2-.3.8-.2 1.3.4 2.1l.3.4-.2.5c-.6 1.6-1.6 3.1-2.8 4.2-1.2 1.2-2.6 2.1-4 2.8-2.9 1.5-6 2.3-9.1 2.8-3.1.5-6.3.8-9.4.9-3.1.3-6.2.2-9.3 0z"/><g><linearGradient id="SVGID_9_" gradientUnits="userSpaceOnUse" x1="27.107" y1="1312.985" x2="78.469" y2="1388.176" gradientTransform="translate(0 -1118)"><stop offset="0" style="stop-color:#b0b0b0"/><stop offset="1" style="stop-color:#fafafa"/></linearGradient><path d="M104.1 243.5C98.9 227.1 84.9 208 72.3 194c-5.8-6.5-14.3-12.8-19.3-14.2-3.8-.9-10.1 4.4-14.1 7.8-2.2 1.8-4.5 3.9-7.2 5.9-12.2 9.2-21.8 17.8-27.2 22.6-.8.7-1.4 1.3-2 1.8-.9.8-1.7 1.6-2.5 2.4v5.7c1.7-.5 3.5-.5 5.6 0 2.9.7 6.1 2.6 9.4 5.8 2.1 2.1 4.3 4.3 6.5 6.9 5.6 6.4 11.6 14.5 18.9 25.2 3.7-.3 7.8-.5 11.6-.3 4.6.1 8.9.6 12 1.6 2.2.7 4.8 1.1 7.5 1.4.7.1 1.3.1 2 .2h10.4c1.3-2.5 2.1-4.5 2.1-4.5 7.3-4.7 19.6-11 18.1-18.8z" style="fill:url(#SVGID_9_)"/><path class="st12" d="M94.9 246.4S80.8 259 71.4 266.5c-2.7-.3-5.4-.7-7.5-1.4-3-1-7.3-1.5-12-1.6-4-7.4-8.8-15.9-11.9-20-5.6-7.3-23.6-27.1-35.4-27.1 5.3-4.9 14.8-13.5 27.1-22.8 2.6-2 10.2-8.3 12.4-10.1 22.6 13.9 43.8 44.3 50.8 62.9z"/><path class="st31" d="m57.8 209.7-12.6-13.2 1-.8 12.6 13.2zM56.6 210.7 44 197.4l.3-.3L57 210.4zM54.5 212.3l-12.6-13.2 1.4-1.2L56 211.2zM53 213.5l-12.6-13.2 1-.8L54 212.7zM51.1 215.1l-12.6-13.3 1-.8 12.6 13.2zM30.6 208.1l12.6 13.3-1 .8-12.6-13.3zM31.8 207.1l12.6 13.3-.3.3-12.7-13.3zM33.9 205.5l12.7 13.2-1.5 1.2-12.6-13.3zM35.4 204.3 48 217.5l-1 .8-12.6-13.2zM37.3 202.7 49.9 216l-1 .8-12.6-13.2zM40.1 223.9l-12.7-13.3 1.2-.9 12.7 13.2zM38.6 225 26 211.8l.4-.4 12.7 13.3zM36.1 227l-12.6-13.2 1.7-1.4 12.6 13.3zM34.8 228.1l-12.6-13.2.7-.7 12.7 13.3z"/><g><path d="m61 213.9-.3-.5-3.6 2.6 1.5 2 .4-.3-1.1-1.5 3.1-2.3zM62.2 217.7c-.5-.7-1.4-.9-2.3-.3-.8.6-.9 1.5-.4 2.2.4.6 1.3 1 2.3.3.8-.6 1-1.5.4-2.2zm-.8 1.7c-.6.4-1.3.4-1.6-.1-.3-.5-.1-1.1.4-1.5.5-.4 1.2-.5 1.6.1.5.6.1 1.2-.4 1.5zM64.4 220.7c-.2-.3-.7-.4-1.1-.3l.5-.4-.3-.4c-.2.2-.5.4-.8.6l-1.8 1.3.3.5 1.4-1c.1-.1.2-.1.2-.1.4-.2.8-.1 1.1.2 0 .1.1.1.1.2l.4-.3v-.3zM65.5 222.3c-.5-.8-1.5-.8-2.3-.2s-1 1.4-.4 2.2c.3.4.6.6.8.7l.3-.3c-.2-.1-.4-.3-.7-.6-.3-.5-.4-1.1.3-1.5l1.3 1.8s.1-.1.2-.1c.6-.4 1.1-1.2.5-2zm-.6 1.4-1-1.4c.4-.2.9-.3 1.3.2.3.5 0 1-.3 1.2zM68.8 226.8c-.2-.2-.4-.4-.6-.4-.2 0-.3-.1-.5 0 .2-.3.2-.8 0-1.1-.3-.4-.7-.5-1.1-.5l.4-.3-.3-.4c-.2.2-.4.3-.7.5l-1.9 1.4.3.5 1.6-1.1c.1-.1.2-.1.3-.1.3-.1.7 0 .9.2.3.4.1.8-.3 1.1l-1.6 1.1.3.5 1.6-1.2c.1-.1.2-.1.3-.1.3-.1.6 0 .8.2.3.4.1.8-.4 1.1l-1.5 1.1.3.5 1.5-1.1c1-.9.8-1.6.6-1.9zM70.7 229.6l-2.6 1.9.3.5 2.6-1.9-.3-.5zm1.2-.5c-.1-.2-.3-.2-.5-.1s-.2.3-.1.5.3.2.5.1.2-.3.1-.5zM72.7 232.2c-.3-.4-.7-.6-1.2-.6l.4-.3-.3-.4c-.2.2-.5.4-.8.6l-2.8 2 .3.5 1.4-1c-.1.3-.1.8.2 1.1.4.6 1.3.8 2.2.2.8-.7 1-1.5.6-2.1zm-.9 1.6c-.6.4-1.2.4-1.6-.1-.2-.3-.2-.8 0-1.1l.2-.2.4-.3c.1 0 .1-.1.2-.1.4-.2.9 0 1.1.3.4.5.2 1.1-.3 1.5zM74.5 234.6c-.4-.6-1-.6-1.4-.3-.3.2-.4.6-.2 1.2.1.4.1.7-.1.8-.2.2-.5.1-.7-.2-.2-.2-.2-.5-.3-.8l-.4.1c0 .3.1.6.3.9.4.6 1 .7 1.5.4.4-.3.4-.7.3-1.2-.1-.4-.1-.7.1-.8.2-.1.5-.1.7.2.2.2.2.5.2.6l.4-.1c-.2-.2-.3-.5-.4-.8zM76.6 237.7l-1.6 1.2c-.1.1-.2.1-.3.1-.3.1-.6 0-.9-.3-.3-.4-.1-.8.4-1.2l1.4-1-.3-.5-1.5 1.1c-.9.7-.8 1.3-.5 1.7.3.5.8.5 1.1.5l-.4.3.3.4c.2-.2.4-.3.7-.5l1.9-1.4-.3-.4zM79.6 241.8c-.2-.2-.4-.4-.6-.4-.2 0-.3-.1-.5 0 .2-.3.2-.8 0-1.1-.3-.4-.7-.5-1.1-.5l.4-.3-.3-.4c-.2.2-.4.3-.7.5l-1.9 1.4.3.5 1.6-1.1c.1-.1.2-.1.3-.1.3-.1.7-.1.9.2.3.4.1.8-.3 1.1l-1.6 1.1.3.5L78 242c.1-.1.2-.1.3-.1.3-.1.6 0 .8.2.3.4.1.8-.4 1.1l-1.5 1.1.3.5 1.5-1.1c1-.9.9-1.6.6-1.9zM55.6 219.7l-1.5 1.1c.1-.3.1-.7-.2-1.1-.5-.6-1.4-.8-2.2-.1-.8.6-1 1.4-.5 2.1.3.4.8.6 1.2.5l-.4.3.3.4c.2-.1.4-.3.7-.5l3.1-2.3-.5-.4zm-2 1.5c0 .1-.1.1-.2.2l-.5.3c-.1.1-.1.1-.2.1-.4.2-.8 0-1.1-.3-.4-.5-.1-1.1.4-1.5.6-.4 1.2-.4 1.6 0 .3.5.2.9 0 1.2zM56.2 222.9c-.5-.7-1.4-.9-2.3-.3-.8.6-.9 1.5-.4 2.2.5.6 1.4 1 2.3.3.8-.5.9-1.4.4-2.2zm-.8 1.8c-.6.4-1.2.4-1.6-.1-.3-.5-.1-1.1.4-1.5.5-.4 1.2-.5 1.6.1.4.5 0 1.2-.4 1.5zM58.7 223.9l-3.8 2.8.3.5 3.8-2.8-.3-.5zM59.2 227.1c-.5-.7-1.4-.9-2.3-.3-.8.6-.9 1.5-.4 2.2.5.6 1.4 1 2.3.3.8-.5 1-1.4.4-2.2zm-.8 1.8c-.6.4-1.2.4-1.6-.1-.3-.5-.1-1.1.4-1.5.5-.4 1.2-.5 1.6.1.5.5.1 1.2-.4 1.5zM61.4 230.1c-.2-.3-.7-.4-1.1-.3l.5-.4-.3-.4c-.2.2-.5.4-.8.6l-1.8 1.3.3.5 1.4-1c.1-.1.2-.1.2-.1.4-.2.8-.1 1.1.2 0 .1.1.1.1.2l.4-.3c.1-.2 0-.2 0-.3zM63.2 232.7c-.4-.6-1-.6-1.4-.3-.3.2-.4.6-.2 1.2.1.4.1.7-.1.8-.2.2-.5.1-.8-.2-.2-.2-.2-.5-.3-.8l-.4.1c0 .3.1.6.3.9.4.6 1 .7 1.5.4.4-.3.4-.7.3-1.2-.1-.4-.1-.7.1-.8.2-.1.5-.1.7.2.2.2.2.5.2.6l.4-.1c0-.3-.1-.6-.3-.8zM64.1 234l-2.6 1.9.3.5 2.6-1.9-.3-.5zm1.2-.5c-.1-.2-.3-.2-.5-.1s-.2.3-.1.5.3.2.5.1.3-.3.1-.5zM66.2 235.3l-.5-.4-.6.4-.3-.4-.4.3.3.4-1.4 1c-.3.2-.5.4-.5.7 0 .2 0 .4.2.7.1.2.3.3.4.4l.3-.3c-.1 0-.1-.1-.2-.2-.2-.3-.1-.5.2-.7l1.4-1 .5.7.4-.3-.5-.7.7-.6zM67.8 239c-.2-.3-.6-.6-.8-.7l-.2.3c.2.1.5.3.7.5.4.5 0 .9-.2 1h-.1c-.7-1-1.5-1.3-2.1-.9-.4.3-.6.8-.2 1.3.3.4.7.5 1 .5l-.3.3.3.4c.1-.2.4-.3.6-.5l1-.7c.5-.1.9-.7.3-1.5zm-1.4 1.8s-.1.1-.2.1c-.3.1-.6 0-.9-.3-.2-.2-.2-.5.1-.8.5-.4 1 .2 1.4.7l-.4.3zM71.1 243.6c-.2-.2-.4-.4-.6-.4-.2 0-.3-.1-.5 0 .2-.3.2-.8 0-1.1-.3-.4-.7-.5-1.1-.5l.4-.3-.3-.4c-.2.2-.4.3-.7.5l-1.9 1.4.3.5 1.6-1.1c.1-.1.2-.1.3-.1.3-.1.7 0 .9.2.3.4.1.8-.3 1.1l-1.6 1.1.3.5 1.6-1.2c.1-.1.2-.1.3-.1.3-.1.6 0 .8.2.3.4.1.8-.4 1.1l-1.5 1.1.3.5 1.5-1.1c1-.9.9-1.6.6-1.9zM73.1 246.2c-.5-.8-1.5-.8-2.3-.2-.8.6-1 1.4-.4 2.2.3.4.6.6.8.7l.3-.3c-.2-.1-.4-.3-.6-.6-.3-.5-.4-1.1.3-1.5l1.3 1.8s.1-.1.2-.1c.4-.3 1-1.1.4-2zm-.7 1.5-1-1.4c.3-.2.9-.3 1.3.2s0 .9-.3 1.2zM75.4 248l-.5-.4-.6.4-.3-.4-.4.3.3.4-1.4 1c-.3.2-.5.4-.5.7 0 .2 0 .4.2.6.1.2.3.3.4.4l.3-.3c-.1 0-.1-.1-.2-.2-.2-.3-.1-.5.2-.7l1.4-1 .5.7.4-.3-.5-.7.7-.5zM73.5 251.1c-.4.2-1.1.5-1.5.6l.3.3c.4 0 1.1-.2 1.7-.4l-.5-.5zM47.6 224.7c-.6-.8-1.6-1-2.4-.4-.8.6-1 1.5-.4 2.2.2.3.5.6.7.6l.3-.3c-.2-.1-.3-.2-.5-.5-.4-.5-.3-1.2.3-1.6.5-.4 1.2-.4 1.6.2.2.3.3.5.3.6l.4-.2c.1-.1-.1-.4-.3-.6zM49.3 226.9c-.5-.7-1.4-.9-2.3-.3-.8.6-.9 1.5-.4 2.2.4.6 1.3 1 2.3.3.7-.5.9-1.4.4-2.2zm-.8 1.8c-.6.4-1.3.4-1.6-.1-.3-.5-.1-1.1.4-1.5.5-.4 1.2-.5 1.6.1.4.5 0 1.2-.4 1.5zM51.6 230.1c-.3-.4-.8-.6-1.1-.5l.4-.3-.3-.4c-.2.2-.4.3-.7.5l-1.9 1.4.3.5 1.6-1.1c.1-.1.2-.1.2-.1.3-.1.7 0 .9.3.3.4.1.8-.3 1.2l-1.5 1.1.3.5 1.5-1.1c1-1 .8-1.7.6-2zM53.3 232.5c-.4-.6-1-.6-1.4-.3-.3.2-.4.6-.2 1.2.1.4.1.7-.1.8-.2.2-.5.1-.7-.2-.2-.2-.3-.6-.3-.8l-.4.1c0 .3.1.6.3.9.4.6 1 .7 1.5.4.4-.3.4-.7.3-1.2-.1-.4-.1-.7.1-.8.2-.1.5-.1.7.2.2.2.2.5.2.6l.4-.1c-.1-.2-.2-.5-.4-.8zM55 234.9c-.5-.8-1.5-.8-2.3-.2-.8.6-1 1.4-.4 2.2.3.4.6.6.8.7l.3-.3c-.2-.1-.4-.3-.7-.6-.3-.5-.4-1.1.3-1.5l1.3 1.8s.1-.1.2-.1c.6-.4 1.2-1.2.5-2zm-.6 1.4-1-1.4c.4-.2.9-.3 1.3.2s0 1-.3 1.2zM57.1 237.8c-.6-.8-1.6-1-2.4-.4-.8.6-1 1.5-.4 2.2.2.3.5.6.7.6l.3-.3c-.2-.1-.4-.2-.5-.5-.4-.5-.3-1.2.3-1.6.5-.4 1.2-.4 1.6.2.2.3.3.5.3.6l.4-.2c0-.1-.1-.4-.3-.6zM59.1 239.1l-.5-.4-.6.4-.3-.4-.4.3.3.4-1.4 1c-.3.2-.5.4-.5.7 0 .2 0 .4.2.6.1.2.3.3.4.4l.3-.3c-.1 0-.1-.1-.2-.3-.2-.3-.1-.5.2-.7l1.4-1 .5.7.4-.3-.5-.7.7-.4zM60 241.8c-.5-.8-1.5-.8-2.3-.2s-1 1.4-.4 2.2c.3.4.6.6.8.7l.3-.3c-.2-.1-.4-.3-.7-.6-.3-.5-.4-1.1.3-1.5l1.3 1.8s.1-.1.2-.1c.6-.4 1.2-1.2.5-2zm-.6 1.4-1-1.4c.4-.2.9-.3 1.3.2s0 1-.3 1.2zM62.3 243.5l-.5-.4-.6.4-.3-.4-.4.3.3.4-1.4 1c-.3.2-.5.4-.5.7 0 .2 0 .4.2.7.1.2.3.3.4.4l.3-.3c-.1 0-.1-.1-.2-.2-.2-.3-.1-.5.2-.7l1.4-1 .5.7.4-.3-.5-.7.7-.6zM63.7 247l-1.6 1.1c-.1.1-.2.1-.3.1-.3.1-.6 0-.9-.3-.3-.4-.1-.8.4-1.2l1.4-1-.3-.5-1.5 1.1c-.9.7-.8 1.3-.5 1.7.3.5.8.5 1.1.5l-.4.3.3.4c.2-.2.4-.3.7-.5l1.9-1.4-.3-.3zM65.4 249.2c-.5-.8-1.5-.8-2.3-.2-.8.6-1 1.4-.4 2.2.3.4.6.6.8.7l.3-.3c-.2-.1-.4-.3-.6-.6-.3-.5-.4-1.1.3-1.5l1.3 1.8s.1-.1.2-.1c.4-.4 1-1.1.4-2zm-.7 1.4-1-1.4c.3-.2.9-.3 1.3.2s.1 1-.3 1.2zM67.4 252c-.2-.3-.7-.4-1.1-.3l.5-.4-.3-.4c-.2.2-.5.4-.8.6l-1.8 1.3.3.5 1.4-1c.1-.1.2-.1.2-.1.4-.2.8-.1 1.1.2 0 .1.1.1.1.2l.4-.3c.1-.2.1-.2 0-.3z"/></g></g></g></g></svg>